<?xml version="1.0" encoding="utf-8" standalone="no"?>
<!DOCTYPE svg PUBLIC "-//W3C//DTD SVG 1.1//EN"
  "http://www.w3.org/Graphics/SVG/1.1/DTD/svg11.dtd">
<!-- Created with matplotlib (https://matplotlib.org/) -->
<svg height="576pt" version="1.1" viewBox="0 0 1728 576" width="1728pt" xmlns="http://www.w3.org/2000/svg" xmlns:xlink="http://www.w3.org/1999/xlink">
 <metadata>
  <rdf:RDF xmlns:cc="http://creativecommons.org/ns#" xmlns:dc="http://purl.org/dc/elements/1.1/" xmlns:rdf="http://www.w3.org/1999/02/22-rdf-syntax-ns#">
   <cc:Work>
    <dc:type rdf:resource="http://purl.org/dc/dcmitype/StillImage"/>
    <dc:date>2022-04-10T11:47:23.828435</dc:date>
    <dc:format>image/svg+xml</dc:format>
    <dc:creator>
     <cc:Agent>
      <dc:title>Matplotlib v3.3.4, https://matplotlib.org/</dc:title>
     </cc:Agent>
    </dc:creator>
   </cc:Work>
  </rdf:RDF>
 </metadata>
 <defs>
  <style type="text/css">*{stroke-linecap:butt;stroke-linejoin:round;}</style>
 </defs>
 <g id="figure_1">
  <g id="patch_1">
   <path d="M 0 576 
L 1728 576 
L 1728 0 
L 0 0 
z
" style="fill:#ffffff;"/>
  </g>
  <g id="axes_1">
   <g id="patch_2">
    <path d="M 216 512.64 
L 1555.2 512.64 
L 1555.2 69.12 
L 216 69.12 
z
" style="fill:#ffffff;"/>
   </g>
   <g id="matplotlib.axis_1">
    <g id="xtick_1">
     <g id="line2d_1">
      <defs>
       <path d="M 0 0 
L 0 3.5 
" id="m874bf3e2f0" style="stroke:#000000;stroke-width:0.8;"/>
      </defs>
      <g>
       <use style="stroke:#000000;stroke-width:0.8;" x="276.872727" xlink:href="#m874bf3e2f0" y="512.64"/>
      </g>
     </g>
     <g id="text_1">
      <!-- 0.0 -->
      <g transform="translate(268.921165 527.238438)scale(0.1 -0.1)">
       <defs>
        <path d="M 31.78125 66.40625 
Q 24.171875 66.40625 20.328125 58.90625 
Q 16.5 51.421875 16.5 36.375 
Q 16.5 21.390625 20.328125 13.890625 
Q 24.171875 6.390625 31.78125 6.390625 
Q 39.453125 6.390625 43.28125 13.890625 
Q 47.125 21.390625 47.125 36.375 
Q 47.125 51.421875 43.28125 58.90625 
Q 39.453125 66.40625 31.78125 66.40625 
z
M 31.78125 74.21875 
Q 44.046875 74.21875 50.515625 64.515625 
Q 56.984375 54.828125 56.984375 36.375 
Q 56.984375 17.96875 50.515625 8.265625 
Q 44.046875 -1.421875 31.78125 -1.421875 
Q 19.53125 -1.421875 13.0625 8.265625 
Q 6.59375 17.96875 6.59375 36.375 
Q 6.59375 54.828125 13.0625 64.515625 
Q 19.53125 74.21875 31.78125 74.21875 
z
" id="DejaVuSans-48"/>
        <path d="M 10.6875 12.40625 
L 21 12.40625 
L 21 0 
L 10.6875 0 
z
" id="DejaVuSans-46"/>
       </defs>
       <use xlink:href="#DejaVuSans-48"/>
       <use x="63.623047" xlink:href="#DejaVuSans-46"/>
       <use x="95.410156" xlink:href="#DejaVuSans-48"/>
      </g>
     </g>
    </g>
    <g id="xtick_2">
     <g id="line2d_2">
      <g>
       <use style="stroke:#000000;stroke-width:0.8;" x="520.363636" xlink:href="#m874bf3e2f0" y="512.64"/>
      </g>
     </g>
     <g id="text_2">
      <!-- 0.1 -->
      <g transform="translate(512.412074 527.238438)scale(0.1 -0.1)">
       <defs>
        <path d="M 12.40625 8.296875 
L 28.515625 8.296875 
L 28.515625 63.921875 
L 10.984375 60.40625 
L 10.984375 69.390625 
L 28.421875 72.90625 
L 38.28125 72.90625 
L 38.28125 8.296875 
L 54.390625 8.296875 
L 54.390625 0 
L 12.40625 0 
z
" id="DejaVuSans-49"/>
       </defs>
       <use xlink:href="#DejaVuSans-48"/>
       <use x="63.623047" xlink:href="#DejaVuSans-46"/>
       <use x="95.410156" xlink:href="#DejaVuSans-49"/>
      </g>
     </g>
    </g>
    <g id="xtick_3">
     <g id="line2d_3">
      <g>
       <use style="stroke:#000000;stroke-width:0.8;" x="763.854545" xlink:href="#m874bf3e2f0" y="512.64"/>
      </g>
     </g>
     <g id="text_3">
      <!-- 0.2 -->
      <g transform="translate(755.902983 527.238438)scale(0.1 -0.1)">
       <defs>
        <path d="M 19.1875 8.296875 
L 53.609375 8.296875 
L 53.609375 0 
L 7.328125 0 
L 7.328125 8.296875 
Q 12.9375 14.109375 22.625 23.890625 
Q 32.328125 33.6875 34.8125 36.53125 
Q 39.546875 41.84375 41.421875 45.53125 
Q 43.3125 49.21875 43.3125 52.78125 
Q 43.3125 58.59375 39.234375 62.25 
Q 35.15625 65.921875 28.609375 65.921875 
Q 23.96875 65.921875 18.8125 64.3125 
Q 13.671875 62.703125 7.8125 59.421875 
L 7.8125 69.390625 
Q 13.765625 71.78125 18.9375 73 
Q 24.125 74.21875 28.421875 74.21875 
Q 39.75 74.21875 46.484375 68.546875 
Q 53.21875 62.890625 53.21875 53.421875 
Q 53.21875 48.921875 51.53125 44.890625 
Q 49.859375 40.875 45.40625 35.40625 
Q 44.1875 33.984375 37.640625 27.21875 
Q 31.109375 20.453125 19.1875 8.296875 
z
" id="DejaVuSans-50"/>
       </defs>
       <use xlink:href="#DejaVuSans-48"/>
       <use x="63.623047" xlink:href="#DejaVuSans-46"/>
       <use x="95.410156" xlink:href="#DejaVuSans-50"/>
      </g>
     </g>
    </g>
    <g id="xtick_4">
     <g id="line2d_4">
      <g>
       <use style="stroke:#000000;stroke-width:0.8;" x="1007.345455" xlink:href="#m874bf3e2f0" y="512.64"/>
      </g>
     </g>
     <g id="text_4">
      <!-- 0.3 -->
      <g transform="translate(999.393892 527.238438)scale(0.1 -0.1)">
       <defs>
        <path d="M 40.578125 39.3125 
Q 47.65625 37.796875 51.625 33 
Q 55.609375 28.21875 55.609375 21.1875 
Q 55.609375 10.40625 48.1875 4.484375 
Q 40.765625 -1.421875 27.09375 -1.421875 
Q 22.515625 -1.421875 17.65625 -0.515625 
Q 12.796875 0.390625 7.625 2.203125 
L 7.625 11.71875 
Q 11.71875 9.328125 16.59375 8.109375 
Q 21.484375 6.890625 26.8125 6.890625 
Q 36.078125 6.890625 40.9375 10.546875 
Q 45.796875 14.203125 45.796875 21.1875 
Q 45.796875 27.640625 41.28125 31.265625 
Q 36.765625 34.90625 28.71875 34.90625 
L 20.21875 34.90625 
L 20.21875 43.015625 
L 29.109375 43.015625 
Q 36.375 43.015625 40.234375 45.921875 
Q 44.09375 48.828125 44.09375 54.296875 
Q 44.09375 59.90625 40.109375 62.90625 
Q 36.140625 65.921875 28.71875 65.921875 
Q 24.65625 65.921875 20.015625 65.03125 
Q 15.375 64.15625 9.8125 62.3125 
L 9.8125 71.09375 
Q 15.4375 72.65625 20.34375 73.4375 
Q 25.25 74.21875 29.59375 74.21875 
Q 40.828125 74.21875 47.359375 69.109375 
Q 53.90625 64.015625 53.90625 55.328125 
Q 53.90625 49.265625 50.4375 45.09375 
Q 46.96875 40.921875 40.578125 39.3125 
z
" id="DejaVuSans-51"/>
       </defs>
       <use xlink:href="#DejaVuSans-48"/>
       <use x="63.623047" xlink:href="#DejaVuSans-46"/>
       <use x="95.410156" xlink:href="#DejaVuSans-51"/>
      </g>
     </g>
    </g>
    <g id="xtick_5">
     <g id="line2d_5">
      <g>
       <use style="stroke:#000000;stroke-width:0.8;" x="1250.836364" xlink:href="#m874bf3e2f0" y="512.64"/>
      </g>
     </g>
     <g id="text_5">
      <!-- 0.4 -->
      <g transform="translate(1242.884801 527.238438)scale(0.1 -0.1)">
       <defs>
        <path d="M 37.796875 64.3125 
L 12.890625 25.390625 
L 37.796875 25.390625 
z
M 35.203125 72.90625 
L 47.609375 72.90625 
L 47.609375 25.390625 
L 58.015625 25.390625 
L 58.015625 17.1875 
L 47.609375 17.1875 
L 47.609375 0 
L 37.796875 0 
L 37.796875 17.1875 
L 4.890625 17.1875 
L 4.890625 26.703125 
z
" id="DejaVuSans-52"/>
       </defs>
       <use xlink:href="#DejaVuSans-48"/>
       <use x="63.623047" xlink:href="#DejaVuSans-46"/>
       <use x="95.410156" xlink:href="#DejaVuSans-52"/>
      </g>
     </g>
    </g>
    <g id="xtick_6">
     <g id="line2d_6">
      <g>
       <use style="stroke:#000000;stroke-width:0.8;" x="1494.327273" xlink:href="#m874bf3e2f0" y="512.64"/>
      </g>
     </g>
     <g id="text_6">
      <!-- 0.5 -->
      <g transform="translate(1486.37571 527.238438)scale(0.1 -0.1)">
       <defs>
        <path d="M 10.796875 72.90625 
L 49.515625 72.90625 
L 49.515625 64.59375 
L 19.828125 64.59375 
L 19.828125 46.734375 
Q 21.96875 47.46875 24.109375 47.828125 
Q 26.265625 48.1875 28.421875 48.1875 
Q 40.625 48.1875 47.75 41.5 
Q 54.890625 34.8125 54.890625 23.390625 
Q 54.890625 11.625 47.5625 5.09375 
Q 40.234375 -1.421875 26.90625 -1.421875 
Q 22.3125 -1.421875 17.546875 -0.640625 
Q 12.796875 0.140625 7.71875 1.703125 
L 7.71875 11.625 
Q 12.109375 9.234375 16.796875 8.0625 
Q 21.484375 6.890625 26.703125 6.890625 
Q 35.15625 6.890625 40.078125 11.328125 
Q 45.015625 15.765625 45.015625 23.390625 
Q 45.015625 31 40.078125 35.4375 
Q 35.15625 39.890625 26.703125 39.890625 
Q 22.75 39.890625 18.8125 39.015625 
Q 14.890625 38.140625 10.796875 36.28125 
z
" id="DejaVuSans-53"/>
       </defs>
       <use xlink:href="#DejaVuSans-48"/>
       <use x="63.623047" xlink:href="#DejaVuSans-46"/>
       <use x="95.410156" xlink:href="#DejaVuSans-53"/>
      </g>
     </g>
    </g>
    <g id="text_7">
     <!-- Time (s) -->
     <g transform="translate(865.271094 540.916563)scale(0.1 -0.1)">
      <defs>
       <path d="M -0.296875 72.90625 
L 61.375 72.90625 
L 61.375 64.59375 
L 35.5 64.59375 
L 35.5 0 
L 25.59375 0 
L 25.59375 64.59375 
L -0.296875 64.59375 
z
" id="DejaVuSans-84"/>
       <path d="M 9.421875 54.6875 
L 18.40625 54.6875 
L 18.40625 0 
L 9.421875 0 
z
M 9.421875 75.984375 
L 18.40625 75.984375 
L 18.40625 64.59375 
L 9.421875 64.59375 
z
" id="DejaVuSans-105"/>
       <path d="M 52 44.1875 
Q 55.375 50.25 60.0625 53.125 
Q 64.75 56 71.09375 56 
Q 79.640625 56 84.28125 50.015625 
Q 88.921875 44.046875 88.921875 33.015625 
L 88.921875 0 
L 79.890625 0 
L 79.890625 32.71875 
Q 79.890625 40.578125 77.09375 44.375 
Q 74.3125 48.1875 68.609375 48.1875 
Q 61.625 48.1875 57.5625 43.546875 
Q 53.515625 38.921875 53.515625 30.90625 
L 53.515625 0 
L 44.484375 0 
L 44.484375 32.71875 
Q 44.484375 40.625 41.703125 44.40625 
Q 38.921875 48.1875 33.109375 48.1875 
Q 26.21875 48.1875 22.15625 43.53125 
Q 18.109375 38.875 18.109375 30.90625 
L 18.109375 0 
L 9.078125 0 
L 9.078125 54.6875 
L 18.109375 54.6875 
L 18.109375 46.1875 
Q 21.1875 51.21875 25.484375 53.609375 
Q 29.78125 56 35.6875 56 
Q 41.65625 56 45.828125 52.96875 
Q 50 49.953125 52 44.1875 
z
" id="DejaVuSans-109"/>
       <path d="M 56.203125 29.59375 
L 56.203125 25.203125 
L 14.890625 25.203125 
Q 15.484375 15.921875 20.484375 11.0625 
Q 25.484375 6.203125 34.421875 6.203125 
Q 39.59375 6.203125 44.453125 7.46875 
Q 49.3125 8.734375 54.109375 11.28125 
L 54.109375 2.78125 
Q 49.265625 0.734375 44.1875 -0.34375 
Q 39.109375 -1.421875 33.890625 -1.421875 
Q 20.796875 -1.421875 13.15625 6.1875 
Q 5.515625 13.8125 5.515625 26.8125 
Q 5.515625 40.234375 12.765625 48.109375 
Q 20.015625 56 32.328125 56 
Q 43.359375 56 49.78125 48.890625 
Q 56.203125 41.796875 56.203125 29.59375 
z
M 47.21875 32.234375 
Q 47.125 39.59375 43.09375 43.984375 
Q 39.0625 48.390625 32.421875 48.390625 
Q 24.90625 48.390625 20.390625 44.140625 
Q 15.875 39.890625 15.1875 32.171875 
z
" id="DejaVuSans-101"/>
       <path id="DejaVuSans-32"/>
       <path d="M 31 75.875 
Q 24.46875 64.65625 21.28125 53.65625 
Q 18.109375 42.671875 18.109375 31.390625 
Q 18.109375 20.125 21.3125 9.0625 
Q 24.515625 -2 31 -13.1875 
L 23.1875 -13.1875 
Q 15.875 -1.703125 12.234375 9.375 
Q 8.59375 20.453125 8.59375 31.390625 
Q 8.59375 42.28125 12.203125 53.3125 
Q 15.828125 64.359375 23.1875 75.875 
z
" id="DejaVuSans-40"/>
       <path d="M 44.28125 53.078125 
L 44.28125 44.578125 
Q 40.484375 46.53125 36.375 47.5 
Q 32.28125 48.484375 27.875 48.484375 
Q 21.1875 48.484375 17.84375 46.4375 
Q 14.5 44.390625 14.5 40.28125 
Q 14.5 37.15625 16.890625 35.375 
Q 19.28125 33.59375 26.515625 31.984375 
L 29.59375 31.296875 
Q 39.15625 29.25 43.1875 25.515625 
Q 47.21875 21.78125 47.21875 15.09375 
Q 47.21875 7.46875 41.1875 3.015625 
Q 35.15625 -1.421875 24.609375 -1.421875 
Q 20.21875 -1.421875 15.453125 -0.5625 
Q 10.6875 0.296875 5.421875 2 
L 5.421875 11.28125 
Q 10.40625 8.6875 15.234375 7.390625 
Q 20.0625 6.109375 24.8125 6.109375 
Q 31.15625 6.109375 34.5625 8.28125 
Q 37.984375 10.453125 37.984375 14.40625 
Q 37.984375 18.0625 35.515625 20.015625 
Q 33.0625 21.96875 24.703125 23.78125 
L 21.578125 24.515625 
Q 13.234375 26.265625 9.515625 29.90625 
Q 5.8125 33.546875 5.8125 39.890625 
Q 5.8125 47.609375 11.28125 51.796875 
Q 16.75 56 26.8125 56 
Q 31.78125 56 36.171875 55.265625 
Q 40.578125 54.546875 44.28125 53.078125 
z
" id="DejaVuSans-115"/>
       <path d="M 8.015625 75.875 
L 15.828125 75.875 
Q 23.140625 64.359375 26.78125 53.3125 
Q 30.421875 42.28125 30.421875 31.390625 
Q 30.421875 20.453125 26.78125 9.375 
Q 23.140625 -1.703125 15.828125 -13.1875 
L 8.015625 -13.1875 
Q 14.5 -2 17.703125 9.0625 
Q 20.90625 20.125 20.90625 31.390625 
Q 20.90625 42.671875 17.703125 53.65625 
Q 14.5 64.65625 8.015625 75.875 
z
" id="DejaVuSans-41"/>
      </defs>
      <use xlink:href="#DejaVuSans-84"/>
      <use x="57.958984" xlink:href="#DejaVuSans-105"/>
      <use x="85.742188" xlink:href="#DejaVuSans-109"/>
      <use x="183.154297" xlink:href="#DejaVuSans-101"/>
      <use x="244.677734" xlink:href="#DejaVuSans-32"/>
      <use x="276.464844" xlink:href="#DejaVuSans-40"/>
      <use x="315.478516" xlink:href="#DejaVuSans-115"/>
      <use x="367.578125" xlink:href="#DejaVuSans-41"/>
     </g>
    </g>
   </g>
   <g id="matplotlib.axis_2">
    <g id="ytick_1">
     <g id="line2d_7">
      <defs>
       <path d="M 0 0 
L -3.5 0 
" id="m976a954e83" style="stroke:#000000;stroke-width:0.8;"/>
      </defs>
      <g>
       <use style="stroke:#000000;stroke-width:0.8;" x="216" xlink:href="#m976a954e83" y="492.48"/>
      </g>
     </g>
     <g id="text_8">
      <!-- 0.0 -->
      <g transform="translate(193.096875 496.279219)scale(0.1 -0.1)">
       <use xlink:href="#DejaVuSans-48"/>
       <use x="63.623047" xlink:href="#DejaVuSans-46"/>
       <use x="95.410156" xlink:href="#DejaVuSans-48"/>
      </g>
     </g>
    </g>
    <g id="ytick_2">
     <g id="line2d_8">
      <g>
       <use style="stroke:#000000;stroke-width:0.8;" x="216" xlink:href="#m976a954e83" y="411.84"/>
      </g>
     </g>
     <g id="text_9">
      <!-- 0.2 -->
      <g transform="translate(193.096875 415.639219)scale(0.1 -0.1)">
       <use xlink:href="#DejaVuSans-48"/>
       <use x="63.623047" xlink:href="#DejaVuSans-46"/>
       <use x="95.410156" xlink:href="#DejaVuSans-50"/>
      </g>
     </g>
    </g>
    <g id="ytick_3">
     <g id="line2d_9">
      <g>
       <use style="stroke:#000000;stroke-width:0.8;" x="216" xlink:href="#m976a954e83" y="331.2"/>
      </g>
     </g>
     <g id="text_10">
      <!-- 0.4 -->
      <g transform="translate(193.096875 334.999219)scale(0.1 -0.1)">
       <use xlink:href="#DejaVuSans-48"/>
       <use x="63.623047" xlink:href="#DejaVuSans-46"/>
       <use x="95.410156" xlink:href="#DejaVuSans-52"/>
      </g>
     </g>
    </g>
    <g id="ytick_4">
     <g id="line2d_10">
      <g>
       <use style="stroke:#000000;stroke-width:0.8;" x="216" xlink:href="#m976a954e83" y="250.56"/>
      </g>
     </g>
     <g id="text_11">
      <!-- 0.6 -->
      <g transform="translate(193.096875 254.359219)scale(0.1 -0.1)">
       <defs>
        <path d="M 33.015625 40.375 
Q 26.375 40.375 22.484375 35.828125 
Q 18.609375 31.296875 18.609375 23.390625 
Q 18.609375 15.53125 22.484375 10.953125 
Q 26.375 6.390625 33.015625 6.390625 
Q 39.65625 6.390625 43.53125 10.953125 
Q 47.40625 15.53125 47.40625 23.390625 
Q 47.40625 31.296875 43.53125 35.828125 
Q 39.65625 40.375 33.015625 40.375 
z
M 52.59375 71.296875 
L 52.59375 62.3125 
Q 48.875 64.0625 45.09375 64.984375 
Q 41.3125 65.921875 37.59375 65.921875 
Q 27.828125 65.921875 22.671875 59.328125 
Q 17.53125 52.734375 16.796875 39.40625 
Q 19.671875 43.65625 24.015625 45.921875 
Q 28.375 48.1875 33.59375 48.1875 
Q 44.578125 48.1875 50.953125 41.515625 
Q 57.328125 34.859375 57.328125 23.390625 
Q 57.328125 12.15625 50.6875 5.359375 
Q 44.046875 -1.421875 33.015625 -1.421875 
Q 20.359375 -1.421875 13.671875 8.265625 
Q 6.984375 17.96875 6.984375 36.375 
Q 6.984375 53.65625 15.1875 63.9375 
Q 23.390625 74.21875 37.203125 74.21875 
Q 40.921875 74.21875 44.703125 73.484375 
Q 48.484375 72.75 52.59375 71.296875 
z
" id="DejaVuSans-54"/>
       </defs>
       <use xlink:href="#DejaVuSans-48"/>
       <use x="63.623047" xlink:href="#DejaVuSans-46"/>
       <use x="95.410156" xlink:href="#DejaVuSans-54"/>
      </g>
     </g>
    </g>
    <g id="ytick_5">
     <g id="line2d_11">
      <g>
       <use style="stroke:#000000;stroke-width:0.8;" x="216" xlink:href="#m976a954e83" y="169.92"/>
      </g>
     </g>
     <g id="text_12">
      <!-- 0.8 -->
      <g transform="translate(193.096875 173.719219)scale(0.1 -0.1)">
       <defs>
        <path d="M 31.78125 34.625 
Q 24.75 34.625 20.71875 30.859375 
Q 16.703125 27.09375 16.703125 20.515625 
Q 16.703125 13.921875 20.71875 10.15625 
Q 24.75 6.390625 31.78125 6.390625 
Q 38.8125 6.390625 42.859375 10.171875 
Q 46.921875 13.96875 46.921875 20.515625 
Q 46.921875 27.09375 42.890625 30.859375 
Q 38.875 34.625 31.78125 34.625 
z
M 21.921875 38.8125 
Q 15.578125 40.375 12.03125 44.71875 
Q 8.5 49.078125 8.5 55.328125 
Q 8.5 64.0625 14.71875 69.140625 
Q 20.953125 74.21875 31.78125 74.21875 
Q 42.671875 74.21875 48.875 69.140625 
Q 55.078125 64.0625 55.078125 55.328125 
Q 55.078125 49.078125 51.53125 44.71875 
Q 48 40.375 41.703125 38.8125 
Q 48.828125 37.15625 52.796875 32.3125 
Q 56.78125 27.484375 56.78125 20.515625 
Q 56.78125 9.90625 50.3125 4.234375 
Q 43.84375 -1.421875 31.78125 -1.421875 
Q 19.734375 -1.421875 13.25 4.234375 
Q 6.78125 9.90625 6.78125 20.515625 
Q 6.78125 27.484375 10.78125 32.3125 
Q 14.796875 37.15625 21.921875 38.8125 
z
M 18.3125 54.390625 
Q 18.3125 48.734375 21.84375 45.5625 
Q 25.390625 42.390625 31.78125 42.390625 
Q 38.140625 42.390625 41.71875 45.5625 
Q 45.3125 48.734375 45.3125 54.390625 
Q 45.3125 60.0625 41.71875 63.234375 
Q 38.140625 66.40625 31.78125 66.40625 
Q 25.390625 66.40625 21.84375 63.234375 
Q 18.3125 60.0625 18.3125 54.390625 
z
" id="DejaVuSans-56"/>
       </defs>
       <use xlink:href="#DejaVuSans-48"/>
       <use x="63.623047" xlink:href="#DejaVuSans-46"/>
       <use x="95.410156" xlink:href="#DejaVuSans-56"/>
      </g>
     </g>
    </g>
    <g id="ytick_6">
     <g id="line2d_12">
      <g>
       <use style="stroke:#000000;stroke-width:0.8;" x="216" xlink:href="#m976a954e83" y="89.28"/>
      </g>
     </g>
     <g id="text_13">
      <!-- 1.0 -->
      <g transform="translate(193.096875 93.079219)scale(0.1 -0.1)">
       <use xlink:href="#DejaVuSans-49"/>
       <use x="63.623047" xlink:href="#DejaVuSans-46"/>
       <use x="95.410156" xlink:href="#DejaVuSans-48"/>
      </g>
     </g>
    </g>
    <g id="text_14">
     <!-- 0/1 -->
     <g transform="translate(187.017188 298.926875)rotate(-90)scale(0.1 -0.1)">
      <defs>
       <path d="M 25.390625 72.90625 
L 33.6875 72.90625 
L 8.296875 -9.28125 
L 0 -9.28125 
z
" id="DejaVuSans-47"/>
      </defs>
      <use xlink:href="#DejaVuSans-48"/>
      <use x="63.623047" xlink:href="#DejaVuSans-47"/>
      <use x="97.314453" xlink:href="#DejaVuSans-49"/>
     </g>
    </g>
   </g>
   <g id="line2d_13">
    <path clip-path="url(#p1748e82874)" d="M 276.872727 89.28 
L 286.368873 89.28 
L 286.490618 492.48 
L 286.9776 492.48 
L 287.099345 89.28 
L 287.221091 492.48 
L 287.951564 492.48 
L 288.073309 89.28 
L 288.195055 492.48 
L 288.925527 492.48 
L 289.047273 89.28 
L 289.169018 492.48 
L 289.777745 492.48 
L 289.899491 89.28 
L 290.021236 492.48 
L 290.508218 492.48 
L 290.629964 89.28 
L 290.751709 492.48 
L 291.238691 492.48 
L 291.360436 89.28 
L 291.482182 492.48 
L 291.847418 492.48 
L 291.969164 89.28 
L 292.090909 492.48 
L 292.577891 492.48 
L 292.699636 89.28 
L 292.821382 492.48 
L 293.186618 492.48 
L 293.308364 89.28 
L 293.430109 492.48 
L 293.795345 492.48 
L 293.917091 89.28 
L 294.038836 492.48 
L 294.404073 492.48 
L 294.525818 89.28 
L 294.647564 492.48 
L 294.891055 492.48 
L 295.0128 89.28 
L 295.134545 492.48 
L 295.499782 492.48 
L 295.621527 89.28 
L 295.743273 492.48 
L 295.986764 492.48 
L 296.108509 89.28 
L 296.230255 492.48 
L 296.595491 492.48 
L 296.717236 89.28 
L 296.838982 492.48 
L 297.082473 492.48 
L 297.204218 89.28 
L 297.325964 492.48 
L 297.569455 492.48 
L 297.6912 89.28 
L 297.812945 492.48 
L 298.056436 492.48 
L 298.178182 89.28 
L 298.299927 492.48 
L 298.543418 492.48 
L 298.665164 89.28 
L 298.786909 492.48 
L 299.0304 492.48 
L 299.152145 89.28 
L 299.273891 492.48 
L 299.395636 492.48 
L 299.517382 89.28 
L 299.639127 492.48 
L 299.882618 492.48 
L 300.004364 89.28 
L 300.126109 492.48 
L 300.3696 492.48 
L 300.491345 89.28 
L 300.613091 492.48 
L 300.734836 492.48 
L 300.856582 89.28 
L 300.978327 492.48 
L 301.221818 492.48 
L 301.343564 89.28 
L 301.465309 492.48 
L 301.587055 492.48 
L 301.7088 89.28 
L 301.830545 492.48 
L 302.074036 492.48 
L 302.195782 89.28 
L 302.317527 492.48 
L 302.439273 492.48 
L 302.561018 89.28 
L 302.682764 492.48 
L 302.804509 492.48 
L 302.926255 89.28 
L 303.048 492.48 
L 303.291491 492.48 
L 303.413236 89.28 
L 303.534982 492.48 
L 303.656727 492.48 
L 303.778473 89.28 
L 303.900218 492.48 
L 304.021964 492.48 
L 304.143709 89.28 
L 304.265455 492.48 
L 304.3872 492.48 
L 304.508945 89.28 
L 304.630691 492.48 
L 304.752436 492.48 
L 304.874182 89.28 
L 304.995927 492.48 
L 305.117673 492.48 
L 305.239418 89.28 
L 305.361164 492.48 
L 305.482909 492.48 
L 305.604655 89.28 
L 305.7264 492.48 
L 305.848145 492.48 
L 305.969891 89.28 
L 306.091636 492.48 
L 306.213382 492.48 
L 306.335127 89.28 
L 306.456873 492.48 
L 306.578618 492.48 
L 306.700364 89.28 
L 306.822109 492.48 
L 306.943855 492.48 
L 307.0656 89.28 
L 307.187345 492.48 
L 307.309091 492.48 
L 307.430836 89.28 
L 307.552582 492.48 
L 307.674327 492.48 
L 307.796073 89.28 
L 307.917818 492.48 
L 308.039564 492.48 
L 308.161309 89.28 
L 308.283055 492.48 
L 308.4048 492.48 
L 308.526545 89.28 
L 308.648291 492.48 
L 308.770036 89.28 
L 308.891782 492.48 
L 309.013527 492.48 
L 309.135273 89.28 
L 309.257018 492.48 
L 309.378764 492.48 
L 309.500509 89.28 
L 309.622255 492.48 
L 309.744 492.48 
L 309.865745 89.28 
L 309.987491 492.48 
L 310.109236 89.28 
L 310.230982 492.48 
L 310.352727 492.48 
L 310.474473 89.28 
L 310.596218 492.48 
L 310.717964 492.48 
L 310.839709 89.28 
L 310.961455 492.48 
L 311.0832 89.28 
L 311.204945 492.48 
L 311.326691 492.48 
L 311.448436 89.28 
L 311.570182 492.48 
L 311.691927 492.48 
L 311.813673 89.28 
L 311.935418 492.48 
L 312.057164 89.28 
L 312.178909 492.48 
L 312.300655 492.48 
L 312.4224 89.28 
L 312.544145 492.48 
L 312.665891 89.28 
L 312.787636 492.48 
L 323.379491 492.48 
L 323.501236 89.28 
L 323.622982 89.28 
L 323.744727 492.48 
L 323.988218 492.48 
L 324.109964 89.28 
L 324.231709 89.28 
L 324.353455 492.48 
L 324.4752 492.48 
L 324.596945 89.28 
L 324.718691 492.48 
L 324.840436 492.48 
L 324.962182 89.28 
L 325.083927 89.28 
L 325.205673 492.48 
L 325.449164 492.48 
L 325.570909 89.28 
L 325.692655 89.28 
L 325.8144 492.48 
L 325.936145 492.48 
L 326.057891 89.28 
L 326.179636 492.48 
L 326.301382 492.48 
L 326.423127 89.28 
L 326.544873 89.28 
L 326.666618 492.48 
L 326.910109 492.48 
L 327.031855 89.28 
L 327.1536 89.28 
L 327.275345 492.48 
L 327.397091 492.48 
L 327.518836 89.28 
L 327.640582 89.28 
L 327.762327 492.48 
L 328.005818 492.48 
L 328.127564 89.28 
L 328.249309 89.28 
L 328.371055 492.48 
L 328.614545 492.48 
L 328.736291 89.28 
L 328.858036 89.28 
L 328.979782 492.48 
L 329.223273 492.48 
L 329.345018 89.28 
L 329.466764 89.28 
L 329.588509 492.48 
L 329.710255 492.48 
L 329.832 89.28 
L 329.953745 492.48 
L 330.075491 492.48 
L 330.197236 89.28 
L 330.318982 89.28 
L 330.440727 492.48 
L 330.684218 492.48 
L 330.805964 89.28 
L 330.927709 89.28 
L 331.049455 492.48 
L 331.1712 492.48 
L 331.292945 89.28 
L 331.414691 492.48 
L 331.536436 492.48 
L 331.658182 89.28 
L 331.779927 89.28 
L 331.901673 492.48 
L 332.145164 492.48 
L 332.266909 89.28 
L 332.388655 89.28 
L 332.5104 492.48 
L 332.632145 492.48 
L 332.753891 89.28 
L 332.875636 492.48 
L 332.997382 492.48 
L 333.119127 89.28 
L 333.240873 89.28 
L 333.362618 492.48 
L 333.606109 492.48 
L 333.727855 89.28 
L 333.8496 89.28 
L 333.971345 492.48 
L 334.093091 492.48 
L 334.214836 89.28 
L 334.336582 492.48 
L 334.458327 492.48 
L 334.580073 89.28 
L 334.701818 89.28 
L 334.823564 492.48 
L 335.067055 492.48 
L 335.1888 89.28 
L 335.310545 89.28 
L 335.432291 492.48 
L 335.554036 492.48 
L 335.675782 89.28 
L 335.797527 492.48 
L 335.919273 492.48 
L 336.041018 89.28 
L 336.162764 89.28 
L 336.284509 492.48 
L 336.406255 492.48 
L 336.528 89.28 
L 336.649745 492.48 
L 336.771491 492.48 
L 336.893236 89.28 
L 337.014982 89.28 
L 337.136727 492.48 
L 337.380218 492.48 
L 337.501964 89.28 
L 337.623709 89.28 
L 337.745455 492.48 
L 337.8672 492.48 
L 337.988945 89.28 
L 338.110691 492.48 
L 338.232436 492.48 
L 338.354182 89.28 
L 338.475927 89.28 
L 338.597673 492.48 
L 338.841164 492.48 
L 338.962909 89.28 
L 339.084655 89.28 
L 339.2064 492.48 
L 339.328145 492.48 
L 339.449891 89.28 
L 339.571636 492.48 
L 339.693382 492.48 
L 339.815127 89.28 
L 339.936873 89.28 
L 340.058618 492.48 
L 340.302109 492.48 
L 340.423855 89.28 
L 340.5456 89.28 
L 340.667345 492.48 
L 340.789091 492.48 
L 340.910836 89.28 
L 341.032582 492.48 
L 341.154327 492.48 
L 341.276073 89.28 
L 341.397818 89.28 
L 341.519564 492.48 
L 341.763055 492.48 
L 341.8848 89.28 
L 342.006545 89.28 
L 342.128291 492.48 
L 342.250036 492.48 
L 342.371782 89.28 
L 342.493527 492.48 
L 342.615273 492.48 
L 342.737018 89.28 
L 342.858764 89.28 
L 342.980509 492.48 
L 343.224 492.48 
L 343.345745 89.28 
L 343.467491 89.28 
L 343.589236 492.48 
L 343.710982 492.48 
L 343.832727 89.28 
L 343.954473 492.48 
L 344.076218 492.48 
L 344.197964 89.28 
L 344.319709 89.28 
L 344.441455 492.48 
L 344.684945 492.48 
L 344.806691 89.28 
L 344.928436 89.28 
L 345.050182 492.48 
L 345.171927 492.48 
L 345.293673 89.28 
L 345.415418 89.28 
L 345.537164 492.48 
L 345.780655 492.48 
L 345.9024 89.28 
L 346.024145 89.28 
L 346.145891 492.48 
L 346.389382 492.48 
L 346.511127 89.28 
L 346.632873 89.28 
L 346.754618 492.48 
L 346.998109 492.48 
L 347.119855 89.28 
L 347.2416 89.28 
L 347.363345 492.48 
L 347.485091 492.48 
L 347.606836 89.28 
L 347.728582 492.48 
L 347.850327 492.48 
L 347.972073 89.28 
L 348.093818 89.28 
L 348.215564 492.48 
L 348.459055 492.48 
L 348.5808 89.28 
L 348.702545 89.28 
L 348.824291 492.48 
L 348.946036 492.48 
L 349.067782 89.28 
L 349.189527 492.48 
L 349.311273 492.48 
L 349.433018 89.28 
L 349.554764 89.28 
L 349.676509 492.48 
L 349.92 492.48 
L 350.041745 89.28 
L 350.163491 89.28 
L 350.285236 492.48 
L 350.406982 492.48 
L 350.528727 89.28 
L 350.650473 492.48 
L 350.772218 492.48 
L 350.893964 89.28 
L 351.015709 89.28 
L 351.137455 492.48 
L 351.380945 492.48 
L 351.502691 89.28 
L 351.624436 89.28 
L 351.746182 492.48 
L 351.867927 492.48 
L 351.989673 89.28 
L 352.111418 492.48 
L 352.233164 492.48 
L 352.354909 89.28 
L 352.476655 89.28 
L 352.5984 492.48 
L 352.720145 492.48 
L 352.841891 89.28 
L 352.963636 492.48 
L 353.085382 492.48 
L 353.207127 89.28 
L 353.328873 89.28 
L 353.450618 492.48 
L 353.694109 492.48 
L 353.815855 89.28 
L 353.9376 89.28 
L 354.059345 492.48 
L 354.181091 492.48 
L 354.302836 89.28 
L 354.424582 492.48 
L 354.546327 492.48 
L 354.668073 89.28 
L 354.789818 89.28 
L 354.911564 492.48 
L 355.155055 492.48 
L 355.2768 89.28 
L 355.398545 89.28 
L 355.520291 492.48 
L 355.642036 492.48 
L 355.763782 89.28 
L 355.885527 492.48 
L 356.007273 492.48 
L 356.129018 89.28 
L 356.250764 89.28 
L 356.372509 492.48 
L 356.616 492.48 
L 356.737745 89.28 
L 356.859491 89.28 
L 356.981236 492.48 
L 357.102982 492.48 
L 357.224727 89.28 
L 357.346473 492.48 
L 357.468218 492.48 
L 357.589964 89.28 
L 357.711709 89.28 
L 357.833455 492.48 
L 358.076945 492.48 
L 358.198691 89.28 
L 358.320436 89.28 
L 358.442182 492.48 
L 358.563927 492.48 
L 358.685673 89.28 
L 358.807418 492.48 
L 358.929164 492.48 
L 359.050909 89.28 
L 359.172655 89.28 
L 359.2944 492.48 
L 359.537891 492.48 
L 359.659636 89.28 
L 359.781382 89.28 
L 359.903127 492.48 
L 360.024873 492.48 
L 360.146618 89.28 
L 360.268364 89.28 
L 360.390109 492.48 
L 360.6336 492.48 
L 360.755345 89.28 
L 360.877091 89.28 
L 360.998836 492.48 
L 361.242327 492.48 
L 361.364073 89.28 
L 361.485818 89.28 
L 361.607564 492.48 
L 361.851055 492.48 
L 361.9728 89.28 
L 362.094545 89.28 
L 362.216291 492.48 
L 362.338036 492.48 
L 362.459782 89.28 
L 362.581527 492.48 
L 362.703273 492.48 
L 362.825018 89.28 
L 362.946764 89.28 
L 363.068509 492.48 
L 363.312 492.48 
L 363.433745 89.28 
L 363.555491 89.28 
L 363.677236 492.48 
L 363.798982 492.48 
L 363.920727 89.28 
L 364.042473 492.48 
L 364.164218 492.48 
L 364.285964 89.28 
L 364.407709 89.28 
L 364.529455 492.48 
L 364.772945 492.48 
L 364.894691 89.28 
L 365.016436 89.28 
L 365.138182 492.48 
L 365.259927 492.48 
L 365.381673 89.28 
L 365.503418 492.48 
L 365.625164 492.48 
L 365.746909 89.28 
L 365.868655 89.28 
L 365.9904 492.48 
L 366.233891 492.48 
L 366.355636 89.28 
L 366.477382 89.28 
L 366.599127 492.48 
L 366.720873 492.48 
L 366.842618 89.28 
L 366.964364 89.28 
L 367.086109 492.48 
L 367.3296 492.48 
L 367.451345 89.28 
L 367.573091 89.28 
L 367.694836 492.48 
L 367.938327 492.48 
L 368.060073 89.28 
L 368.181818 89.28 
L 368.303564 492.48 
L 368.547055 492.48 
L 368.6688 89.28 
L 368.790545 89.28 
L 368.912291 492.48 
L 369.034036 492.48 
L 369.155782 89.28 
L 369.277527 492.48 
L 369.399273 492.48 
L 369.521018 89.28 
L 369.642764 89.28 
L 369.764509 492.48 
L 370.008 492.48 
L 370.129745 89.28 
L 370.251491 89.28 
L 370.373236 492.48 
L 370.494982 492.48 
L 370.616727 89.28 
L 370.738473 492.48 
L 370.860218 492.48 
L 370.981964 89.28 
L 371.103709 89.28 
L 371.225455 492.48 
L 371.468945 492.48 
L 371.590691 89.28 
L 371.712436 89.28 
L 371.834182 492.48 
L 371.955927 492.48 
L 372.077673 89.28 
L 372.199418 492.48 
L 372.321164 492.48 
L 372.442909 89.28 
L 372.564655 89.28 
L 372.6864 492.48 
L 372.808145 492.48 
L 372.929891 89.28 
L 373.051636 492.48 
L 373.173382 492.48 
L 373.295127 89.28 
L 373.416873 89.28 
L 373.538618 492.48 
L 373.782109 492.48 
L 373.903855 89.28 
L 374.0256 89.28 
L 374.147345 492.48 
L 374.269091 492.48 
L 374.390836 89.28 
L 374.512582 492.48 
L 374.634327 492.48 
L 374.756073 89.28 
L 374.877818 89.28 
L 374.999564 492.48 
L 375.243055 492.48 
L 375.3648 89.28 
L 375.486545 89.28 
L 375.608291 492.48 
L 375.730036 492.48 
L 375.851782 89.28 
L 375.973527 492.48 
L 376.095273 492.48 
L 376.217018 89.28 
L 376.338764 89.28 
L 376.460509 492.48 
L 376.704 492.48 
L 376.825745 89.28 
L 376.947491 89.28 
L 377.069236 492.48 
L 377.190982 492.48 
L 377.312727 89.28 
L 377.434473 492.48 
L 377.556218 492.48 
L 377.677964 89.28 
L 377.799709 89.28 
L 377.921455 492.48 
L 378.164945 492.48 
L 378.286691 89.28 
L 378.408436 89.28 
L 378.530182 492.48 
L 378.651927 492.48 
L 378.773673 89.28 
L 378.895418 492.48 
L 379.017164 492.48 
L 379.138909 89.28 
L 379.260655 89.28 
L 379.3824 492.48 
L 379.504145 492.48 
L 379.625891 89.28 
L 379.747636 492.48 
L 379.869382 492.48 
L 379.991127 89.28 
L 380.112873 89.28 
L 380.234618 492.48 
L 380.478109 492.48 
L 380.599855 89.28 
L 380.7216 89.28 
L 380.843345 492.48 
L 380.965091 492.48 
L 381.086836 89.28 
L 381.208582 492.48 
L 381.330327 492.48 
L 381.452073 89.28 
L 381.573818 89.28 
L 381.695564 492.48 
L 381.939055 492.48 
L 382.0608 89.28 
L 382.182545 89.28 
L 382.304291 492.48 
L 382.426036 492.48 
L 382.547782 89.28 
L 382.669527 492.48 
L 382.791273 492.48 
L 382.913018 89.28 
L 383.034764 89.28 
L 383.156509 492.48 
L 383.4 492.48 
L 383.521745 89.28 
L 383.643491 89.28 
L 383.765236 492.48 
L 383.886982 492.48 
L 384.008727 89.28 
L 384.130473 492.48 
L 384.252218 492.48 
L 384.373964 89.28 
L 384.495709 89.28 
L 384.617455 492.48 
L 384.860945 492.48 
L 384.982691 89.28 
L 385.104436 89.28 
L 385.226182 492.48 
L 385.347927 492.48 
L 385.469673 89.28 
L 385.591418 89.28 
L 385.713164 492.48 
L 385.956655 492.48 
L 386.0784 89.28 
L 386.200145 89.28 
L 386.321891 492.48 
L 386.565382 492.48 
L 386.687127 89.28 
L 386.808873 89.28 
L 386.930618 492.48 
L 387.174109 492.48 
L 387.295855 89.28 
L 387.4176 89.28 
L 387.539345 492.48 
L 387.661091 492.48 
L 387.782836 89.28 
L 387.904582 492.48 
L 388.026327 492.48 
L 388.148073 89.28 
L 388.269818 89.28 
L 388.391564 492.48 
L 388.635055 492.48 
L 388.7568 89.28 
L 388.878545 89.28 
L 389.000291 492.48 
L 389.122036 492.48 
L 389.243782 89.28 
L 389.365527 492.48 
L 389.487273 492.48 
L 389.609018 89.28 
L 389.730764 89.28 
L 389.852509 492.48 
L 390.096 492.48 
L 390.217745 89.28 
L 390.339491 89.28 
L 390.461236 492.48 
L 390.582982 492.48 
L 390.704727 89.28 
L 390.826473 492.48 
L 390.948218 492.48 
L 391.069964 89.28 
L 391.191709 89.28 
L 391.313455 492.48 
L 391.4352 492.48 
L 391.556945 89.28 
L 391.678691 492.48 
L 391.800436 492.48 
L 391.922182 89.28 
L 392.043927 89.28 
L 392.165673 492.48 
L 392.409164 492.48 
L 392.530909 89.28 
L 392.652655 89.28 
L 392.7744 492.48 
L 392.896145 492.48 
L 393.017891 89.28 
L 393.139636 492.48 
L 393.261382 492.48 
L 393.383127 89.28 
L 393.504873 89.28 
L 393.626618 492.48 
L 393.870109 492.48 
L 393.991855 89.28 
L 394.1136 89.28 
L 394.235345 492.48 
L 394.357091 492.48 
L 394.478836 89.28 
L 394.600582 492.48 
L 394.722327 492.48 
L 394.844073 89.28 
L 394.965818 89.28 
L 395.087564 492.48 
L 395.331055 492.48 
L 395.4528 89.28 
L 395.574545 89.28 
L 395.696291 492.48 
L 395.818036 492.48 
L 395.939782 89.28 
L 396.061527 492.48 
L 396.183273 492.48 
L 396.305018 89.28 
L 396.426764 89.28 
L 396.548509 492.48 
L 396.670255 492.48 
L 396.792 89.28 
L 396.913745 492.48 
L 397.035491 492.48 
L 397.157236 89.28 
L 397.278982 89.28 
L 397.400727 492.48 
L 397.644218 492.48 
L 397.765964 89.28 
L 397.887709 89.28 
L 398.009455 492.48 
L 398.1312 492.48 
L 398.252945 89.28 
L 398.374691 492.48 
L 398.496436 492.48 
L 398.618182 89.28 
L 398.739927 89.28 
L 398.861673 492.48 
L 399.105164 492.48 
L 399.226909 89.28 
L 399.348655 89.28 
L 399.4704 492.48 
L 399.592145 492.48 
L 399.713891 89.28 
L 399.835636 492.48 
L 399.957382 492.48 
L 400.079127 89.28 
L 400.200873 89.28 
L 400.322618 492.48 
L 400.566109 492.48 
L 400.687855 89.28 
L 400.8096 89.28 
L 400.931345 492.48 
L 401.053091 492.48 
L 401.174836 89.28 
L 401.296582 492.48 
L 401.418327 492.48 
L 401.540073 89.28 
L 401.661818 89.28 
L 401.783564 492.48 
L 402.027055 492.48 
L 402.1488 89.28 
L 402.270545 89.28 
L 402.392291 492.48 
L 402.514036 492.48 
L 402.635782 89.28 
L 402.757527 89.28 
L 402.879273 492.48 
L 403.122764 492.48 
L 403.244509 89.28 
L 403.366255 89.28 
L 403.488 492.48 
L 403.731491 492.48 
L 403.853236 89.28 
L 403.974982 89.28 
L 404.096727 492.48 
L 404.340218 492.48 
L 404.461964 89.28 
L 404.583709 89.28 
L 404.705455 492.48 
L 404.8272 492.48 
L 404.948945 89.28 
L 405.070691 492.48 
L 405.192436 492.48 
L 405.314182 89.28 
L 405.435927 89.28 
L 405.557673 492.48 
L 405.801164 492.48 
L 405.922909 89.28 
L 406.044655 89.28 
L 406.1664 492.48 
L 406.288145 492.48 
L 406.409891 89.28 
L 406.531636 492.48 
L 406.653382 492.48 
L 406.775127 89.28 
L 406.896873 89.28 
L 407.018618 492.48 
L 407.140364 492.48 
L 407.262109 89.28 
L 407.383855 492.48 
L 407.5056 492.48 
L 407.627345 89.28 
L 407.749091 89.28 
L 407.870836 492.48 
L 408.114327 492.48 
L 408.236073 89.28 
L 408.357818 89.28 
L 408.479564 492.48 
L 408.601309 492.48 
L 408.723055 89.28 
L 408.8448 492.48 
L 408.966545 492.48 
L 409.088291 89.28 
L 409.210036 89.28 
L 409.331782 492.48 
L 409.575273 492.48 
L 409.697018 89.28 
L 409.818764 89.28 
L 409.940509 492.48 
L 410.062255 492.48 
L 410.184 89.28 
L 410.305745 492.48 
L 410.427491 492.48 
L 410.549236 89.28 
L 410.670982 89.28 
L 410.792727 492.48 
L 411.036218 492.48 
L 411.157964 89.28 
L 411.279709 89.28 
L 411.401455 492.48 
L 411.5232 492.48 
L 411.644945 89.28 
L 411.766691 492.48 
L 411.888436 492.48 
L 412.010182 89.28 
L 412.131927 89.28 
L 412.253673 492.48 
L 412.375418 492.48 
L 412.497164 89.28 
L 412.618909 492.48 
L 412.740655 492.48 
L 412.8624 89.28 
L 412.984145 89.28 
L 413.105891 492.48 
L 413.349382 492.48 
L 413.471127 89.28 
L 413.592873 89.28 
L 413.714618 492.48 
L 413.836364 492.48 
L 413.958109 89.28 
L 414.079855 492.48 
L 414.2016 492.48 
L 414.323345 89.28 
L 414.445091 89.28 
L 414.566836 492.48 
L 414.810327 492.48 
L 414.932073 89.28 
L 415.053818 89.28 
L 415.175564 492.48 
L 415.297309 492.48 
L 415.419055 89.28 
L 415.5408 492.48 
L 415.662545 492.48 
L 415.784291 89.28 
L 415.906036 89.28 
L 416.027782 492.48 
L 416.271273 492.48 
L 416.393018 89.28 
L 416.514764 89.28 
L 416.636509 492.48 
L 416.758255 492.48 
L 416.88 89.28 
L 417.001745 492.48 
L 417.123491 492.48 
L 417.245236 89.28 
L 417.366982 89.28 
L 417.488727 492.48 
L 417.610473 492.48 
L 417.732218 89.28 
L 417.853964 492.48 
L 417.975709 492.48 
L 418.097455 89.28 
L 418.2192 89.28 
L 418.340945 492.48 
L 418.584436 492.48 
L 418.706182 89.28 
L 418.827927 89.28 
L 418.949673 492.48 
L 419.071418 492.48 
L 419.193164 89.28 
L 419.314909 492.48 
L 419.436655 492.48 
L 419.5584 89.28 
L 419.680145 89.28 
L 419.801891 492.48 
L 420.045382 492.48 
L 420.167127 89.28 
L 420.288873 89.28 
L 420.410618 492.48 
L 420.532364 492.48 
L 420.654109 89.28 
L 420.775855 492.48 
L 420.8976 492.48 
L 421.019345 89.28 
L 421.141091 89.28 
L 421.262836 492.48 
L 421.506327 492.48 
L 421.628073 89.28 
L 421.749818 89.28 
L 421.871564 492.48 
L 421.993309 492.48 
L 422.115055 89.28 
L 422.2368 492.48 
L 422.358545 492.48 
L 422.480291 89.28 
L 422.602036 89.28 
L 422.723782 492.48 
L 422.845527 492.48 
L 422.967273 89.28 
L 423.089018 492.48 
L 423.210764 492.48 
L 423.332509 89.28 
L 423.454255 89.28 
L 423.576 492.48 
L 423.819491 492.48 
L 423.941236 89.28 
L 424.062982 89.28 
L 424.184727 492.48 
L 424.306473 492.48 
L 424.428218 89.28 
L 424.549964 492.48 
L 424.671709 492.48 
L 424.793455 89.28 
L 424.9152 89.28 
L 425.036945 492.48 
L 425.280436 492.48 
L 425.402182 89.28 
L 425.523927 89.28 
L 425.645673 492.48 
L 425.767418 492.48 
L 425.889164 89.28 
L 426.010909 492.48 
L 426.132655 492.48 
L 426.2544 89.28 
L 426.376145 89.28 
L 426.497891 492.48 
L 426.741382 492.48 
L 426.863127 89.28 
L 426.984873 89.28 
L 427.106618 492.48 
L 427.228364 492.48 
L 427.350109 89.28 
L 427.471855 89.28 
L 427.5936 492.48 
L 427.837091 492.48 
L 427.958836 89.28 
L 428.080582 89.28 
L 428.202327 492.48 
L 428.445818 492.48 
L 428.567564 89.28 
L 428.689309 89.28 
L 428.811055 492.48 
L 429.054545 492.48 
L 429.176291 89.28 
L 429.298036 89.28 
L 429.419782 492.48 
L 429.541527 492.48 
L 429.663273 89.28 
L 429.785018 492.48 
L 429.906764 492.48 
L 430.028509 89.28 
L 430.150255 89.28 
L 430.272 492.48 
L 430.515491 492.48 
L 430.637236 89.28 
L 430.758982 89.28 
L 430.880727 492.48 
L 431.002473 492.48 
L 431.124218 89.28 
L 431.245964 492.48 
L 431.367709 492.48 
L 431.489455 89.28 
L 431.6112 89.28 
L 431.732945 492.48 
L 431.854691 492.48 
L 431.976436 89.28 
L 432.098182 492.48 
L 432.219927 492.48 
L 432.341673 89.28 
L 432.463418 89.28 
L 432.585164 492.48 
L 432.828655 492.48 
L 432.9504 89.28 
L 433.072145 89.28 
L 433.193891 492.48 
L 433.315636 492.48 
L 433.437382 89.28 
L 433.559127 492.48 
L 433.680873 492.48 
L 433.802618 89.28 
L 433.924364 89.28 
L 434.046109 492.48 
L 434.2896 492.48 
L 434.411345 89.28 
L 434.533091 89.28 
L 434.654836 492.48 
L 434.776582 492.48 
L 434.898327 89.28 
L 435.020073 492.48 
L 435.141818 492.48 
L 435.263564 89.28 
L 435.385309 89.28 
L 435.507055 492.48 
L 435.750545 492.48 
L 435.872291 89.28 
L 435.994036 89.28 
L 436.115782 492.48 
L 436.237527 492.48 
L 436.359273 89.28 
L 436.481018 89.28 
L 436.602764 492.48 
L 436.846255 492.48 
L 436.968 89.28 
L 437.089745 89.28 
L 437.211491 492.48 
L 437.454982 492.48 
L 437.576727 89.28 
L 437.698473 89.28 
L 437.820218 492.48 
L 438.063709 492.48 
L 438.185455 89.28 
L 438.3072 89.28 
L 438.428945 492.48 
L 438.550691 492.48 
L 438.672436 89.28 
L 438.794182 492.48 
L 438.915927 492.48 
L 439.037673 89.28 
L 439.159418 89.28 
L 439.281164 492.48 
L 439.524655 492.48 
L 439.6464 89.28 
L 439.768145 89.28 
L 439.889891 492.48 
L 440.011636 492.48 
L 440.133382 89.28 
L 440.255127 492.48 
L 440.376873 492.48 
L 440.498618 89.28 
L 440.620364 89.28 
L 440.742109 492.48 
L 440.863855 492.48 
L 440.9856 89.28 
L 441.107345 492.48 
L 441.229091 492.48 
L 441.350836 89.28 
L 441.472582 89.28 
L 441.594327 492.48 
L 441.837818 492.48 
L 441.959564 89.28 
L 442.081309 89.28 
L 442.203055 492.48 
L 442.3248 492.48 
L 442.446545 89.28 
L 442.568291 492.48 
L 442.690036 492.48 
L 442.811782 89.28 
L 442.933527 89.28 
L 443.055273 492.48 
L 443.298764 492.48 
L 443.420509 89.28 
L 443.542255 89.28 
L 443.664 492.48 
L 443.785745 492.48 
L 443.907491 89.28 
L 444.029236 492.48 
L 444.150982 492.48 
L 444.272727 89.28 
L 444.394473 89.28 
L 444.516218 492.48 
L 444.637964 492.48 
L 444.759709 89.28 
L 444.881455 492.48 
L 445.0032 492.48 
L 445.124945 89.28 
L 445.246691 89.28 
L 445.368436 492.48 
L 445.611927 492.48 
L 445.733673 89.28 
L 445.855418 89.28 
L 445.977164 492.48 
L 446.098909 492.48 
L 446.220655 89.28 
L 446.3424 492.48 
L 446.464145 492.48 
L 446.585891 89.28 
L 446.707636 89.28 
L 446.829382 492.48 
L 447.072873 492.48 
L 447.194618 89.28 
L 447.316364 89.28 
L 447.438109 492.48 
L 447.559855 492.48 
L 447.6816 89.28 
L 447.803345 492.48 
L 447.925091 492.48 
L 448.046836 89.28 
L 448.168582 89.28 
L 448.290327 492.48 
L 448.533818 492.48 
L 448.655564 89.28 
L 448.777309 89.28 
L 448.899055 492.48 
L 449.0208 492.48 
L 449.142545 89.28 
L 449.264291 89.28 
L 449.386036 492.48 
L 449.629527 492.48 
L 449.751273 89.28 
L 449.873018 89.28 
L 449.994764 492.48 
L 450.238255 492.48 
L 450.36 89.28 
L 450.481745 89.28 
L 450.603491 492.48 
L 450.846982 492.48 
L 450.968727 89.28 
L 451.090473 89.28 
L 451.212218 492.48 
L 451.333964 492.48 
L 451.455709 89.28 
L 451.577455 492.48 
L 451.6992 492.48 
L 451.820945 89.28 
L 451.942691 89.28 
L 452.064436 492.48 
L 452.307927 492.48 
L 452.429673 89.28 
L 452.551418 89.28 
L 452.673164 492.48 
L 452.794909 492.48 
L 452.916655 89.28 
L 453.0384 89.28 
L 453.160145 492.48 
L 453.403636 492.48 
L 453.525382 89.28 
L 453.647127 89.28 
L 453.768873 492.48 
L 454.012364 492.48 
L 454.134109 89.28 
L 454.255855 89.28 
L 454.3776 492.48 
L 454.621091 492.48 
L 454.742836 89.28 
L 454.864582 89.28 
L 454.986327 492.48 
L 455.108073 492.48 
L 455.229818 89.28 
L 455.351564 492.48 
L 455.473309 492.48 
L 455.595055 89.28 
L 455.7168 89.28 
L 455.838545 492.48 
L 456.082036 492.48 
L 456.203782 89.28 
L 456.325527 89.28 
L 456.447273 492.48 
L 456.569018 492.48 
L 456.690764 89.28 
L 456.812509 89.28 
L 456.934255 492.48 
L 457.177745 492.48 
L 457.299491 89.28 
L 457.421236 89.28 
L 457.542982 492.48 
L 457.786473 492.48 
L 457.908218 89.28 
L 458.029964 89.28 
L 458.151709 492.48 
L 458.3952 492.48 
L 458.516945 89.28 
L 458.638691 89.28 
L 458.760436 492.48 
L 458.882182 492.48 
L 459.003927 89.28 
L 459.125673 492.48 
L 459.247418 492.48 
L 459.369164 89.28 
L 459.490909 89.28 
L 459.612655 492.48 
L 459.856145 492.48 
L 459.977891 89.28 
L 460.099636 89.28 
L 460.221382 492.48 
L 460.343127 492.48 
L 460.464873 89.28 
L 460.586618 89.28 
L 460.708364 492.48 
L 460.951855 492.48 
L 461.0736 89.28 
L 461.195345 89.28 
L 461.317091 492.48 
L 461.560582 492.48 
L 461.682327 89.28 
L 461.804073 89.28 
L 461.925818 492.48 
L 462.169309 492.48 
L 462.291055 89.28 
L 462.4128 89.28 
L 462.534545 492.48 
L 462.656291 492.48 
L 462.778036 89.28 
L 462.899782 492.48 
L 463.021527 492.48 
L 463.143273 89.28 
L 463.265018 89.28 
L 463.386764 492.48 
L 463.630255 492.48 
L 463.752 89.28 
L 463.873745 89.28 
L 463.995491 492.48 
L 464.117236 492.48 
L 464.238982 89.28 
L 464.360727 89.28 
L 464.482473 492.48 
L 464.725964 492.48 
L 464.847709 89.28 
L 464.969455 89.28 
L 465.0912 492.48 
L 465.334691 492.48 
L 465.456436 89.28 
L 465.578182 89.28 
L 465.699927 492.48 
L 465.943418 492.48 
L 466.065164 89.28 
L 466.186909 89.28 
L 466.308655 492.48 
L 466.4304 492.48 
L 466.552145 89.28 
L 466.673891 492.48 
L 466.795636 492.48 
L 466.917382 89.28 
L 467.039127 89.28 
L 467.160873 492.48 
L 467.404364 492.48 
L 467.526109 89.28 
L 467.647855 89.28 
L 467.7696 492.48 
L 467.891345 492.48 
L 468.013091 89.28 
L 468.134836 89.28 
L 468.256582 492.48 
L 468.500073 492.48 
L 468.621818 89.28 
L 468.743564 89.28 
L 468.865309 492.48 
L 469.1088 492.48 
L 469.230545 89.28 
L 469.352291 89.28 
L 469.474036 492.48 
L 469.717527 492.48 
L 469.839273 89.28 
L 469.961018 89.28 
L 470.082764 492.48 
L 470.204509 492.48 
L 470.326255 89.28 
L 470.448 492.48 
L 470.569745 492.48 
L 470.691491 89.28 
L 470.813236 89.28 
L 470.934982 492.48 
L 471.056727 492.48 
L 471.178473 89.28 
L 471.300218 492.48 
L 471.421964 492.48 
L 471.543709 89.28 
L 471.665455 89.28 
L 471.7872 492.48 
L 472.030691 492.48 
L 472.152436 89.28 
L 472.274182 89.28 
L 472.395927 492.48 
L 472.517673 492.48 
L 472.639418 89.28 
L 472.761164 492.48 
L 472.882909 492.48 
L 473.004655 89.28 
L 473.1264 89.28 
L 473.248145 492.48 
L 473.491636 492.48 
L 473.613382 89.28 
L 473.735127 89.28 
L 473.856873 492.48 
L 473.978618 492.48 
L 474.100364 89.28 
L 474.222109 492.48 
L 474.343855 492.48 
L 474.4656 89.28 
L 474.587345 89.28 
L 474.709091 492.48 
L 474.830836 492.48 
L 474.952582 89.28 
L 475.074327 492.48 
L 475.196073 492.48 
L 475.317818 89.28 
L 475.439564 89.28 
L 475.561309 492.48 
L 475.8048 492.48 
L 475.926545 89.28 
L 476.048291 89.28 
L 476.170036 492.48 
L 476.291782 492.48 
L 476.413527 89.28 
L 476.535273 492.48 
L 476.657018 492.48 
L 476.778764 89.28 
L 476.900509 89.28 
L 477.022255 492.48 
L 477.265745 492.48 
L 477.387491 89.28 
L 477.509236 89.28 
L 477.630982 492.48 
L 477.752727 492.48 
L 477.874473 89.28 
L 477.996218 492.48 
L 478.117964 492.48 
L 478.239709 89.28 
L 478.361455 89.28 
L 478.4832 492.48 
L 478.604945 492.48 
L 478.726691 89.28 
L 478.848436 492.48 
L 478.970182 492.48 
L 479.091927 89.28 
L 479.213673 89.28 
L 479.335418 492.48 
L 479.578909 492.48 
L 479.700655 89.28 
L 479.8224 89.28 
L 479.944145 492.48 
L 480.065891 492.48 
L 480.187636 89.28 
L 480.309382 492.48 
L 480.431127 492.48 
L 480.552873 89.28 
L 480.674618 89.28 
L 480.796364 492.48 
L 481.039855 492.48 
L 481.1616 89.28 
L 481.283345 89.28 
L 481.405091 492.48 
L 481.526836 492.48 
L 481.648582 89.28 
L 481.770327 89.28 
L 481.892073 492.48 
L 482.135564 492.48 
L 482.257309 89.28 
L 482.379055 89.28 
L 482.5008 492.48 
L 482.744291 492.48 
L 482.866036 89.28 
L 482.987782 89.28 
L 483.109527 492.48 
L 483.353018 492.48 
L 483.474764 89.28 
L 483.596509 89.28 
L 483.718255 492.48 
L 483.84 492.48 
L 483.961745 89.28 
L 484.083491 492.48 
L 484.205236 492.48 
L 484.326982 89.28 
L 484.448727 89.28 
L 484.570473 492.48 
L 484.813964 492.48 
L 484.935709 89.28 
L 485.057455 89.28 
L 485.1792 492.48 
L 485.300945 492.48 
L 485.422691 89.28 
L 485.544436 89.28 
L 485.666182 492.48 
L 485.909673 492.48 
L 486.031418 89.28 
L 486.153164 89.28 
L 486.274909 492.48 
L 486.5184 492.48 
L 486.640145 89.28 
L 486.761891 89.28 
L 486.883636 492.48 
L 487.127127 492.48 
L 487.248873 89.28 
L 487.370618 89.28 
L 487.492364 492.48 
L 487.614109 492.48 
L 487.735855 89.28 
L 487.8576 492.48 
L 487.979345 492.48 
L 488.101091 89.28 
L 488.222836 89.28 
L 488.344582 492.48 
L 488.466327 492.48 
L 488.588073 89.28 
L 488.709818 492.48 
L 488.831564 492.48 
L 488.953309 89.28 
L 489.075055 89.28 
L 489.1968 492.48 
L 489.440291 492.48 
L 489.562036 89.28 
L 489.683782 89.28 
L 489.805527 492.48 
L 489.927273 492.48 
L 490.049018 89.28 
L 490.170764 492.48 
L 490.292509 492.48 
L 490.414255 89.28 
L 490.536 89.28 
L 490.657745 492.48 
L 490.901236 492.48 
L 491.022982 89.28 
L 491.144727 89.28 
L 491.266473 492.48 
L 491.388218 492.48 
L 491.509964 89.28 
L 491.631709 89.28 
L 491.753455 492.48 
L 491.996945 492.48 
L 492.118691 89.28 
L 492.240436 89.28 
L 492.362182 492.48 
L 492.605673 492.48 
L 492.727418 89.28 
L 492.849164 89.28 
L 492.970909 492.48 
L 493.2144 492.48 
L 493.336145 89.28 
L 493.457891 89.28 
L 493.579636 492.48 
L 493.701382 492.48 
L 493.823127 89.28 
L 493.944873 492.48 
L 494.066618 492.48 
L 494.188364 89.28 
L 494.310109 89.28 
L 494.431855 492.48 
L 494.5536 492.48 
L 494.675345 89.28 
L 494.797091 492.48 
L 494.918836 492.48 
L 495.040582 89.28 
L 495.162327 89.28 
L 495.284073 492.48 
L 495.527564 492.48 
L 495.649309 89.28 
L 495.771055 89.28 
L 495.8928 492.48 
L 496.014545 492.48 
L 496.136291 89.28 
L 496.258036 492.48 
L 496.379782 492.48 
L 496.501527 89.28 
L 496.623273 89.28 
L 496.745018 492.48 
L 496.988509 492.48 
L 497.110255 89.28 
L 497.232 89.28 
L 497.353745 492.48 
L 497.475491 492.48 
L 497.597236 89.28 
L 497.718982 89.28 
L 497.840727 492.48 
L 498.084218 492.48 
L 498.205964 89.28 
L 498.327709 89.28 
L 498.449455 492.48 
L 498.692945 492.48 
L 498.814691 89.28 
L 498.936436 89.28 
L 499.058182 492.48 
L 499.301673 492.48 
L 499.423418 89.28 
L 499.545164 89.28 
L 499.666909 492.48 
L 499.788655 492.48 
L 499.9104 89.28 
L 500.032145 492.48 
L 500.153891 492.48 
L 500.275636 89.28 
L 500.397382 89.28 
L 500.519127 492.48 
L 500.640873 492.48 
L 500.762618 89.28 
L 500.884364 492.48 
L 501.006109 492.48 
L 501.127855 89.28 
L 501.2496 89.28 
L 501.371345 492.48 
L 501.614836 492.48 
L 501.736582 89.28 
L 501.858327 89.28 
L 501.980073 492.48 
L 502.101818 492.48 
L 502.223564 89.28 
L 502.345309 492.48 
L 502.467055 492.48 
L 502.5888 89.28 
L 502.710545 89.28 
L 502.832291 492.48 
L 503.075782 492.48 
L 503.197527 89.28 
L 503.319273 89.28 
L 503.441018 492.48 
L 503.562764 492.48 
L 503.684509 89.28 
L 503.806255 89.28 
L 503.928 492.48 
L 504.171491 492.48 
L 504.293236 89.28 
L 504.414982 89.28 
L 504.536727 492.48 
L 504.780218 492.48 
L 504.901964 89.28 
L 505.023709 89.28 
L 505.145455 492.48 
L 505.388945 492.48 
L 505.510691 89.28 
L 505.632436 89.28 
L 505.754182 492.48 
L 505.875927 492.48 
L 505.997673 89.28 
L 506.119418 492.48 
L 506.241164 492.48 
L 506.362909 89.28 
L 506.484655 89.28 
L 506.6064 492.48 
L 506.728145 492.48 
L 506.849891 89.28 
L 506.971636 492.48 
L 507.093382 492.48 
L 507.215127 89.28 
L 507.336873 89.28 
L 507.458618 492.48 
L 507.702109 492.48 
L 507.823855 89.28 
L 507.9456 89.28 
L 508.067345 492.48 
L 508.189091 492.48 
L 508.310836 89.28 
L 508.432582 492.48 
L 508.554327 492.48 
L 508.676073 89.28 
L 508.797818 89.28 
L 508.919564 492.48 
L 509.163055 492.48 
L 509.2848 89.28 
L 509.406545 89.28 
L 509.528291 492.48 
L 509.650036 492.48 
L 509.771782 89.28 
L 509.893527 89.28 
L 510.015273 492.48 
L 510.258764 492.48 
L 510.380509 89.28 
L 510.502255 89.28 
L 510.624 492.48 
L 510.867491 492.48 
L 510.989236 89.28 
L 511.110982 89.28 
L 511.232727 492.48 
L 511.476218 492.48 
L 511.597964 89.28 
L 511.719709 89.28 
L 511.841455 492.48 
L 511.9632 492.48 
L 512.084945 89.28 
L 512.206691 492.48 
L 512.328436 492.48 
L 512.450182 89.28 
L 512.571927 89.28 
L 512.693673 492.48 
L 512.815418 492.48 
L 512.937164 89.28 
L 513.058909 492.48 
L 513.180655 492.48 
L 513.3024 89.28 
L 513.424145 89.28 
L 513.545891 492.48 
L 513.789382 492.48 
L 513.911127 89.28 
L 514.032873 89.28 
L 514.154618 492.48 
L 514.276364 492.48 
L 514.398109 89.28 
L 514.519855 492.48 
L 514.6416 492.48 
L 514.763345 89.28 
L 514.885091 89.28 
L 515.006836 492.48 
L 515.250327 492.48 
L 515.372073 89.28 
L 515.493818 89.28 
L 515.615564 492.48 
L 515.737309 492.48 
L 515.859055 89.28 
L 515.9808 89.28 
L 516.102545 492.48 
L 516.589527 492.48 
L 516.711273 89.28 
L 516.954764 89.28 
L 517.076509 492.48 
L 517.198255 492.48 
L 517.32 89.28 
L 517.441745 89.28 
L 517.563491 492.48 
L 517.806982 492.48 
L 517.928727 89.28 
L 518.050473 89.28 
L 518.172218 492.48 
L 518.537455 492.48 
L 518.6592 89.28 
L 518.902691 89.28 
L 519.024436 492.48 
L 519.267927 492.48 
L 519.389673 89.28 
L 519.511418 89.28 
L 519.633164 492.48 
L 519.876655 492.48 
L 519.9984 89.28 
L 520.120145 89.28 
L 520.241891 492.48 
L 520.485382 492.48 
L 520.607127 89.28 
L 520.728873 89.28 
L 520.850618 492.48 
L 520.972364 492.48 
L 521.094109 89.28 
L 521.215855 89.28 
L 521.3376 492.48 
L 521.702836 492.48 
L 521.824582 89.28 
L 522.068073 89.28 
L 522.189818 492.48 
L 522.555055 492.48 
L 522.6768 89.28 
L 522.798545 89.28 
L 522.920291 492.48 
L 523.042036 492.48 
L 523.163782 89.28 
L 523.285527 89.28 
L 523.407273 492.48 
L 523.650764 492.48 
L 523.772509 89.28 
L 523.894255 89.28 
L 524.016 492.48 
L 524.137745 492.48 
L 524.259491 89.28 
L 524.381236 492.48 
L 524.502982 492.48 
L 524.624727 89.28 
L 524.746473 89.28 
L 524.868218 492.48 
L 524.989964 492.48 
L 525.111709 89.28 
L 525.233455 492.48 
L 525.3552 492.48 
L 525.476945 89.28 
L 525.598691 89.28 
L 525.720436 492.48 
L 526.085673 492.48 
L 526.207418 89.28 
L 526.450909 89.28 
L 526.572655 492.48 
L 526.816145 492.48 
L 526.937891 89.28 
L 527.059636 89.28 
L 527.181382 492.48 
L 527.424873 492.48 
L 527.546618 89.28 
L 527.668364 89.28 
L 527.790109 492.48 
L 527.911855 492.48 
L 528.0336 89.28 
L 528.155345 89.28 
L 528.277091 492.48 
L 528.764073 492.48 
L 528.885818 89.28 
L 529.129309 89.28 
L 529.251055 492.48 
L 529.3728 492.48 
L 529.494545 89.28 
L 529.616291 89.28 
L 529.738036 492.48 
L 529.981527 492.48 
L 530.103273 89.28 
L 530.225018 89.28 
L 530.346764 492.48 
L 530.590255 492.48 
L 530.712 89.28 
L 530.833745 89.28 
L 530.955491 492.48 
L 531.198982 492.48 
L 531.320727 89.28 
L 531.442473 89.28 
L 531.564218 492.48 
L 531.685964 492.48 
L 531.807709 89.28 
L 531.929455 89.28 
L 532.0512 492.48 
L 532.538182 492.48 
L 532.659927 89.28 
L 532.903418 89.28 
L 533.025164 492.48 
L 533.146909 492.48 
L 533.268655 89.28 
L 533.3904 89.28 
L 533.512145 492.48 
L 533.755636 492.48 
L 533.877382 89.28 
L 533.999127 89.28 
L 534.120873 492.48 
L 534.364364 492.48 
L 534.486109 89.28 
L 534.607855 89.28 
L 534.7296 492.48 
L 534.851345 492.48 
L 534.973091 89.28 
L 535.094836 492.48 
L 535.216582 492.48 
L 535.338327 89.28 
L 535.460073 89.28 
L 535.581818 492.48 
L 535.947055 492.48 
L 536.0688 89.28 
L 536.312291 89.28 
L 536.434036 492.48 
L 536.677527 492.48 
L 536.799273 89.28 
L 536.921018 89.28 
L 537.042764 492.48 
L 537.164509 492.48 
L 537.286255 89.28 
L 537.408 492.48 
L 537.529745 492.48 
L 537.651491 89.28 
L 537.773236 89.28 
L 537.894982 492.48 
L 538.138473 492.48 
L 538.260218 89.28 
L 538.381964 89.28 
L 538.503709 492.48 
L 538.7472 492.48 
L 538.868945 89.28 
L 538.990691 89.28 
L 539.112436 492.48 
L 539.234182 492.48 
L 539.355927 89.28 
L 539.477673 89.28 
L 539.599418 492.48 
L 539.964655 492.48 
L 540.0864 89.28 
L 540.329891 89.28 
L 540.451636 492.48 
L 540.816873 492.48 
L 540.938618 89.28 
L 541.060364 89.28 
L 541.182109 492.48 
L 541.303855 492.48 
L 541.4256 89.28 
L 541.547345 89.28 
L 541.669091 492.48 
L 541.912582 492.48 
L 542.034327 89.28 
L 542.156073 89.28 
L 542.277818 492.48 
L 542.399564 492.48 
L 542.521309 89.28 
L 542.643055 492.48 
L 542.7648 492.48 
L 542.886545 89.28 
L 543.008291 89.28 
L 543.130036 492.48 
L 543.251782 492.48 
L 543.373527 89.28 
L 543.495273 492.48 
L 543.617018 492.48 
L 543.738764 89.28 
L 543.860509 89.28 
L 543.982255 492.48 
L 544.347491 492.48 
L 544.469236 89.28 
L 544.712727 89.28 
L 544.834473 492.48 
L 545.077964 492.48 
L 545.199709 89.28 
L 545.321455 89.28 
L 545.4432 492.48 
L 545.686691 492.48 
L 545.808436 89.28 
L 545.930182 89.28 
L 546.051927 492.48 
L 546.173673 492.48 
L 546.295418 89.28 
L 546.417164 89.28 
L 546.538909 492.48 
L 547.025891 492.48 
L 547.147636 89.28 
L 547.391127 89.28 
L 547.512873 492.48 
L 547.634618 492.48 
L 547.756364 89.28 
L 547.878109 89.28 
L 547.999855 492.48 
L 548.243345 492.48 
L 548.365091 89.28 
L 548.486836 89.28 
L 548.608582 492.48 
L 548.852073 492.48 
L 548.973818 89.28 
L 549.095564 89.28 
L 549.217309 492.48 
L 549.4608 492.48 
L 549.582545 89.28 
L 549.704291 89.28 
L 549.826036 492.48 
L 550.069527 492.48 
L 550.191273 89.28 
L 550.313018 89.28 
L 550.434764 492.48 
L 550.556509 492.48 
L 550.678255 89.28 
L 550.8 89.28 
L 550.921745 492.48 
L 551.165236 492.48 
L 551.286982 89.28 
L 551.408727 89.28 
L 551.530473 492.48 
L 551.773964 492.48 
L 551.895709 89.28 
L 552.017455 89.28 
L 552.1392 492.48 
L 552.382691 492.48 
L 552.504436 89.28 
L 552.626182 89.28 
L 552.747927 492.48 
L 552.869673 492.48 
L 552.991418 89.28 
L 553.113164 89.28 
L 553.234909 492.48 
L 553.600145 492.48 
L 553.721891 89.28 
L 553.965382 89.28 
L 554.087127 492.48 
L 554.330618 492.48 
L 554.452364 89.28 
L 554.574109 89.28 
L 554.695855 492.48 
L 555.061091 492.48 
L 555.182836 89.28 
L 555.426327 89.28 
L 555.548073 492.48 
L 555.791564 492.48 
L 555.913309 89.28 
L 556.035055 89.28 
L 556.1568 492.48 
L 556.522036 492.48 
L 556.643782 89.28 
L 556.887273 89.28 
L 557.009018 492.48 
L 557.252509 492.48 
L 557.374255 89.28 
L 557.496 89.28 
L 557.617745 492.48 
L 557.861236 492.48 
L 557.982982 89.28 
L 558.104727 89.28 
L 558.226473 492.48 
L 558.348218 492.48 
L 558.469964 89.28 
L 558.591709 89.28 
L 558.713455 492.48 
L 559.200436 492.48 
L 559.322182 89.28 
L 559.565673 89.28 
L 559.687418 492.48 
L 559.809164 492.48 
L 559.930909 89.28 
L 560.052655 89.28 
L 560.1744 492.48 
L 560.417891 492.48 
L 560.539636 89.28 
L 560.661382 89.28 
L 560.783127 492.48 
L 561.026618 492.48 
L 561.148364 89.28 
L 561.270109 89.28 
L 561.391855 492.48 
L 561.635345 492.48 
L 561.757091 89.28 
L 561.878836 89.28 
L 562.000582 492.48 
L 562.122327 492.48 
L 562.244073 89.28 
L 562.365818 89.28 
L 562.487564 492.48 
L 562.974545 492.48 
L 563.096291 89.28 
L 563.339782 89.28 
L 563.461527 492.48 
L 563.583273 492.48 
L 563.705018 89.28 
L 563.826764 89.28 
L 563.948509 492.48 
L 564.192 492.48 
L 564.313745 89.28 
L 564.435491 89.28 
L 564.557236 492.48 
L 564.800727 492.48 
L 564.922473 89.28 
L 565.044218 89.28 
L 565.165964 492.48 
L 565.409455 492.48 
L 565.5312 89.28 
L 565.652945 89.28 
L 565.774691 492.48 
L 565.896436 492.48 
L 566.018182 89.28 
L 566.139927 89.28 
L 566.261673 492.48 
L 566.748655 492.48 
L 566.8704 89.28 
L 567.113891 89.28 
L 567.235636 492.48 
L 567.357382 492.48 
L 567.479127 89.28 
L 567.600873 89.28 
L 567.722618 492.48 
L 567.966109 492.48 
L 568.087855 89.28 
L 568.2096 89.28 
L 568.331345 492.48 
L 568.574836 492.48 
L 568.696582 89.28 
L 568.818327 89.28 
L 568.940073 492.48 
L 569.061818 492.48 
L 569.183564 89.28 
L 569.305309 492.48 
L 569.427055 492.48 
L 569.5488 89.28 
L 569.670545 89.28 
L 569.792291 492.48 
L 570.035782 492.48 
L 570.157527 89.28 
L 570.279273 89.28 
L 570.401018 492.48 
L 570.522764 492.48 
L 570.644509 89.28 
L 570.766255 89.28 
L 570.888 492.48 
L 571.374982 492.48 
L 571.496727 89.28 
L 571.740218 89.28 
L 571.861964 492.48 
L 571.983709 492.48 
L 572.105455 89.28 
L 572.2272 89.28 
L 572.348945 492.48 
L 572.592436 492.48 
L 572.714182 89.28 
L 572.835927 89.28 
L 572.957673 492.48 
L 573.201164 492.48 
L 573.322909 89.28 
L 573.444655 89.28 
L 573.5664 492.48 
L 573.809891 492.48 
L 573.931636 89.28 
L 574.053382 89.28 
L 574.175127 492.48 
L 574.418618 492.48 
L 574.540364 89.28 
L 574.662109 89.28 
L 574.783855 492.48 
L 574.9056 492.48 
L 575.027345 89.28 
L 575.149091 89.28 
L 575.270836 492.48 
L 575.514327 492.48 
L 575.636073 89.28 
L 575.757818 89.28 
L 575.879564 492.48 
L 576.2448 492.48 
L 576.366545 89.28 
L 576.610036 89.28 
L 576.731782 492.48 
L 576.975273 492.48 
L 577.097018 89.28 
L 577.218764 89.28 
L 577.340509 492.48 
L 577.462255 492.48 
L 577.584 89.28 
L 577.705745 492.48 
L 577.827491 492.48 
L 577.949236 89.28 
L 578.070982 89.28 
L 578.192727 492.48 
L 578.436218 492.48 
L 578.557964 89.28 
L 578.679709 89.28 
L 578.801455 492.48 
L 578.9232 492.48 
L 579.044945 89.28 
L 579.166691 492.48 
L 579.288436 492.48 
L 579.410182 89.28 
L 579.531927 89.28 
L 579.653673 492.48 
L 579.775418 492.48 
L 579.897164 89.28 
L 580.018909 492.48 
L 580.140655 492.48 
L 580.2624 89.28 
L 580.384145 89.28 
L 580.505891 492.48 
L 580.871127 492.48 
L 580.992873 89.28 
L 581.236364 89.28 
L 581.358109 492.48 
L 581.6016 492.48 
L 581.723345 89.28 
L 581.845091 89.28 
L 581.966836 492.48 
L 582.210327 492.48 
L 582.332073 89.28 
L 582.453818 89.28 
L 582.575564 492.48 
L 582.697309 492.48 
L 582.819055 89.28 
L 582.9408 89.28 
L 583.062545 492.48 
L 583.549527 492.48 
L 583.671273 89.28 
L 583.914764 89.28 
L 584.036509 492.48 
L 584.158255 492.48 
L 584.28 89.28 
L 584.401745 89.28 
L 584.523491 492.48 
L 584.766982 492.48 
L 584.888727 89.28 
L 585.010473 89.28 
L 585.132218 492.48 
L 585.497455 492.48 
L 585.6192 89.28 
L 585.862691 89.28 
L 585.984436 492.48 
L 586.227927 492.48 
L 586.349673 89.28 
L 586.471418 89.28 
L 586.593164 492.48 
L 586.836655 492.48 
L 586.9584 89.28 
L 587.080145 89.28 
L 587.201891 492.48 
L 587.445382 492.48 
L 587.567127 89.28 
L 587.688873 89.28 
L 587.810618 492.48 
L 587.932364 492.48 
L 588.054109 89.28 
L 588.175855 89.28 
L 588.2976 492.48 
L 588.662836 492.48 
L 588.784582 89.28 
L 589.028073 89.28 
L 589.149818 492.48 
L 589.6368 492.48 
L 589.758545 89.28 
L 590.002036 89.28 
L 590.123782 492.48 
L 590.245527 492.48 
L 590.367273 89.28 
L 590.489018 89.28 
L 590.610764 492.48 
L 590.854255 492.48 
L 590.976 89.28 
L 591.097745 89.28 
L 591.219491 492.48 
L 591.462982 492.48 
L 591.584727 89.28 
L 591.706473 89.28 
L 591.828218 492.48 
L 592.071709 492.48 
L 592.193455 89.28 
L 592.3152 89.28 
L 592.436945 492.48 
L 592.558691 492.48 
L 592.680436 89.28 
L 592.802182 89.28 
L 592.923927 492.48 
L 593.410909 492.48 
L 593.532655 89.28 
L 593.776145 89.28 
L 593.897891 492.48 
L 594.019636 492.48 
L 594.141382 89.28 
L 594.263127 89.28 
L 594.384873 492.48 
L 594.628364 492.48 
L 594.750109 89.28 
L 594.871855 89.28 
L 594.9936 492.48 
L 595.237091 492.48 
L 595.358836 89.28 
L 595.480582 89.28 
L 595.602327 492.48 
L 595.845818 492.48 
L 595.967564 89.28 
L 596.089309 89.28 
L 596.211055 492.48 
L 596.3328 492.48 
L 596.454545 89.28 
L 596.576291 89.28 
L 596.698036 492.48 
L 597.185018 492.48 
L 597.306764 89.28 
L 597.550255 89.28 
L 597.672 492.48 
L 597.793745 492.48 
L 597.915491 89.28 
L 598.037236 89.28 
L 598.158982 492.48 
L 598.402473 492.48 
L 598.524218 89.28 
L 598.645964 89.28 
L 598.767709 492.48 
L 599.0112 492.48 
L 599.132945 89.28 
L 599.254691 89.28 
L 599.376436 492.48 
L 599.498182 492.48 
L 599.619927 89.28 
L 599.741673 492.48 
L 599.863418 492.48 
L 599.985164 89.28 
L 600.106909 89.28 
L 600.228655 492.48 
L 600.472145 492.48 
L 600.593891 89.28 
L 600.715636 89.28 
L 600.837382 492.48 
L 600.959127 492.48 
L 601.080873 89.28 
L 601.202618 89.28 
L 601.324364 492.48 
L 601.811345 492.48 
L 601.933091 89.28 
L 602.176582 89.28 
L 602.298327 492.48 
L 602.420073 492.48 
L 602.541818 89.28 
L 602.663564 89.28 
L 602.785309 492.48 
L 603.0288 492.48 
L 603.150545 89.28 
L 603.272291 89.28 
L 603.394036 492.48 
L 603.759273 492.48 
L 603.881018 89.28 
L 604.124509 89.28 
L 604.246255 492.48 
L 604.489745 492.48 
L 604.611491 89.28 
L 604.733236 89.28 
L 604.854982 492.48 
L 605.098473 492.48 
L 605.220218 89.28 
L 605.341964 89.28 
L 605.463709 492.48 
L 605.7072 492.48 
L 605.828945 89.28 
L 605.950691 89.28 
L 606.072436 492.48 
L 606.194182 492.48 
L 606.315927 89.28 
L 606.437673 89.28 
L 606.559418 492.48 
L 607.0464 492.48 
L 607.168145 89.28 
L 607.411636 89.28 
L 607.533382 492.48 
L 607.655127 492.48 
L 607.776873 89.28 
L 607.898618 89.28 
L 608.020364 492.48 
L 608.263855 492.48 
L 608.3856 89.28 
L 608.507345 89.28 
L 608.629091 492.48 
L 608.872582 492.48 
L 608.994327 89.28 
L 609.116073 89.28 
L 609.237818 492.48 
L 609.359564 492.48 
L 609.481309 89.28 
L 609.603055 492.48 
L 609.7248 492.48 
L 609.846545 89.28 
L 609.968291 89.28 
L 610.090036 492.48 
L 610.211782 492.48 
L 610.333527 89.28 
L 610.455273 492.48 
L 610.577018 492.48 
L 610.698764 89.28 
L 610.820509 89.28 
L 610.942255 492.48 
L 611.185745 492.48 
L 611.307491 89.28 
L 611.429236 89.28 
L 611.550982 492.48 
L 611.794473 492.48 
L 611.916218 89.28 
L 612.037964 89.28 
L 612.159709 492.48 
L 612.281455 492.48 
L 612.4032 89.28 
L 612.524945 89.28 
L 612.646691 492.48 
L 613.011927 492.48 
L 613.133673 89.28 
L 613.377164 89.28 
L 613.498909 492.48 
L 613.864145 492.48 
L 613.985891 89.28 
L 614.107636 89.28 
L 614.229382 492.48 
L 614.351127 492.48 
L 614.472873 89.28 
L 614.594618 89.28 
L 614.716364 492.48 
L 614.959855 492.48 
L 615.0816 89.28 
L 615.203345 89.28 
L 615.325091 492.48 
L 615.446836 492.48 
L 615.568582 89.28 
L 615.690327 492.48 
L 615.812073 492.48 
L 615.933818 89.28 
L 616.055564 89.28 
L 616.177309 492.48 
L 616.4208 492.48 
L 616.542545 89.28 
L 616.664291 89.28 
L 616.786036 492.48 
L 616.907782 492.48 
L 617.029527 89.28 
L 617.151273 89.28 
L 617.273018 492.48 
L 617.76 492.48 
L 617.881745 89.28 
L 618.125236 89.28 
L 618.246982 492.48 
L 618.368727 492.48 
L 618.490473 89.28 
L 618.612218 89.28 
L 618.733964 492.48 
L 618.977455 492.48 
L 619.0992 89.28 
L 619.220945 89.28 
L 619.342691 492.48 
L 619.586182 492.48 
L 619.707927 89.28 
L 619.829673 89.28 
L 619.951418 492.48 
L 620.194909 492.48 
L 620.316655 89.28 
L 620.4384 89.28 
L 620.560145 492.48 
L 620.681891 492.48 
L 620.803636 89.28 
L 620.925382 89.28 
L 621.047127 492.48 
L 621.534109 492.48 
L 621.655855 89.28 
L 621.899345 89.28 
L 622.021091 492.48 
L 622.142836 492.48 
L 622.264582 89.28 
L 622.386327 89.28 
L 622.508073 492.48 
L 622.751564 492.48 
L 622.873309 89.28 
L 622.995055 89.28 
L 623.1168 492.48 
L 623.360291 492.48 
L 623.482036 89.28 
L 623.603782 89.28 
L 623.725527 492.48 
L 623.847273 492.48 
L 623.969018 89.28 
L 624.090764 492.48 
L 624.212509 492.48 
L 624.334255 89.28 
L 624.456 89.28 
L 624.577745 492.48 
L 624.821236 492.48 
L 624.942982 89.28 
L 625.064727 89.28 
L 625.186473 492.48 
L 625.308218 492.48 
L 625.429964 89.28 
L 625.551709 89.28 
L 625.673455 492.48 
L 626.160436 492.48 
L 626.282182 89.28 
L 626.525673 89.28 
L 626.647418 492.48 
L 626.769164 492.48 
L 626.890909 89.28 
L 627.012655 89.28 
L 627.1344 492.48 
L 627.377891 492.48 
L 627.499636 89.28 
L 627.621382 89.28 
L 627.743127 492.48 
L 628.108364 492.48 
L 628.230109 89.28 
L 628.4736 89.28 
L 628.595345 492.48 
L 628.838836 492.48 
L 628.960582 89.28 
L 629.082327 89.28 
L 629.204073 492.48 
L 629.569309 492.48 
L 629.691055 89.28 
L 629.934545 89.28 
L 630.056291 492.48 
L 630.299782 492.48 
L 630.421527 89.28 
L 630.543273 89.28 
L 630.665018 492.48 
L 630.908509 492.48 
L 631.030255 89.28 
L 631.152 89.28 
L 631.273745 492.48 
L 631.395491 492.48 
L 631.517236 89.28 
L 631.638982 89.28 
L 631.760727 492.48 
L 632.247709 492.48 
L 632.369455 89.28 
L 632.612945 89.28 
L 632.734691 492.48 
L 632.856436 492.48 
L 632.978182 89.28 
L 633.099927 89.28 
L 633.221673 492.48 
L 633.465164 492.48 
L 633.586909 89.28 
L 633.708655 89.28 
L 633.8304 492.48 
L 634.195636 492.48 
L 634.317382 89.28 
L 634.560873 89.28 
L 634.682618 492.48 
L 634.926109 492.48 
L 635.047855 89.28 
L 635.1696 89.28 
L 635.291345 492.48 
L 635.534836 492.48 
L 635.656582 89.28 
L 635.778327 89.28 
L 635.900073 492.48 
L 636.143564 492.48 
L 636.265309 89.28 
L 636.387055 89.28 
L 636.5088 492.48 
L 636.630545 492.48 
L 636.752291 89.28 
L 636.874036 89.28 
L 636.995782 492.48 
L 637.482764 492.48 
L 637.604509 89.28 
L 637.848 89.28 
L 637.969745 492.48 
L 638.091491 492.48 
L 638.213236 89.28 
L 638.334982 89.28 
L 638.456727 492.48 
L 638.700218 492.48 
L 638.821964 89.28 
L 638.943709 89.28 
L 639.065455 492.48 
L 639.308945 492.48 
L 639.430691 89.28 
L 639.552436 89.28 
L 639.674182 492.48 
L 639.795927 492.48 
L 639.917673 89.28 
L 640.039418 492.48 
L 640.161164 492.48 
L 640.282909 89.28 
L 640.404655 89.28 
L 640.5264 492.48 
L 640.648145 492.48 
L 640.769891 89.28 
L 640.891636 492.48 
L 641.013382 492.48 
L 641.135127 89.28 
L 641.256873 89.28 
L 641.378618 492.48 
L 641.622109 492.48 
L 641.743855 89.28 
L 641.8656 89.28 
L 641.987345 492.48 
L 642.230836 492.48 
L 642.352582 89.28 
L 642.474327 89.28 
L 642.596073 492.48 
L 642.717818 492.48 
L 642.839564 89.28 
L 642.961309 89.28 
L 643.083055 492.48 
L 643.570036 492.48 
L 643.691782 89.28 
L 643.935273 89.28 
L 644.057018 492.48 
L 644.178764 492.48 
L 644.300509 89.28 
L 644.422255 89.28 
L 644.544 492.48 
L 644.787491 492.48 
L 644.909236 89.28 
L 645.030982 89.28 
L 645.152727 492.48 
L 645.396218 492.48 
L 645.517964 89.28 
L 645.639709 89.28 
L 645.761455 492.48 
L 645.8832 492.48 
L 646.004945 89.28 
L 646.126691 492.48 
L 646.248436 492.48 
L 646.370182 89.28 
L 646.491927 89.28 
L 646.613673 492.48 
L 646.735418 492.48 
L 646.857164 89.28 
L 646.978909 492.48 
L 647.100655 492.48 
L 647.2224 89.28 
L 647.344145 89.28 
L 647.465891 492.48 
L 647.709382 492.48 
L 647.831127 89.28 
L 647.952873 89.28 
L 648.074618 492.48 
L 648.318109 492.48 
L 648.439855 89.28 
L 648.5616 89.28 
L 648.683345 492.48 
L 648.805091 492.48 
L 648.926836 89.28 
L 649.048582 89.28 
L 649.170327 492.48 
L 649.657309 492.48 
L 649.779055 89.28 
L 650.022545 89.28 
L 650.144291 492.48 
L 650.266036 492.48 
L 650.387782 89.28 
L 650.509527 89.28 
L 650.631273 492.48 
L 650.874764 492.48 
L 650.996509 89.28 
L 651.118255 89.28 
L 651.24 492.48 
L 651.483491 492.48 
L 651.605236 89.28 
L 651.726982 89.28 
L 651.848727 492.48 
L 651.970473 492.48 
L 652.092218 89.28 
L 652.213964 492.48 
L 652.335709 492.48 
L 652.457455 89.28 
L 652.5792 89.28 
L 652.700945 492.48 
L 652.944436 492.48 
L 653.066182 89.28 
L 653.187927 89.28 
L 653.309673 492.48 
L 653.431418 492.48 
L 653.553164 89.28 
L 653.674909 89.28 
L 653.796655 492.48 
L 654.161891 492.48 
L 654.283636 89.28 
L 654.405382 89.28 
L 654.527127 492.48 
L 654.648873 492.48 
L 654.770618 89.28 
L 654.892364 89.28 
L 655.014109 492.48 
L 655.2576 492.48 
L 655.379345 89.28 
L 655.501091 89.28 
L 655.622836 492.48 
L 655.744582 492.48 
L 655.866327 89.28 
L 655.988073 492.48 
L 656.109818 492.48 
L 656.231564 89.28 
L 656.353309 89.28 
L 656.475055 492.48 
L 656.5968 492.48 
L 656.718545 89.28 
L 656.840291 492.48 
L 656.962036 492.48 
L 657.083782 89.28 
L 657.205527 89.28 
L 657.327273 492.48 
L 657.570764 492.48 
L 657.692509 89.28 
L 657.814255 89.28 
L 657.936 492.48 
L 658.179491 492.48 
L 658.301236 89.28 
L 658.422982 89.28 
L 658.544727 492.48 
L 658.666473 492.48 
L 658.788218 89.28 
L 658.909964 89.28 
L 659.031709 492.48 
L 659.396945 492.48 
L 659.518691 89.28 
L 659.762182 89.28 
L 659.883927 492.48 
L 660.249164 492.48 
L 660.370909 89.28 
L 660.492655 89.28 
L 660.6144 492.48 
L 660.736145 492.48 
L 660.857891 89.28 
L 660.979636 89.28 
L 661.101382 492.48 
L 661.344873 492.48 
L 661.466618 89.28 
L 661.588364 89.28 
L 661.710109 492.48 
L 661.831855 492.48 
L 661.9536 89.28 
L 662.075345 492.48 
L 662.197091 492.48 
L 662.318836 89.28 
L 662.440582 89.28 
L 662.562327 492.48 
L 662.684073 492.48 
L 662.805818 89.28 
L 662.927564 492.48 
L 663.049309 492.48 
L 663.171055 89.28 
L 663.2928 89.28 
L 663.414545 492.48 
L 663.658036 492.48 
L 663.779782 89.28 
L 663.901527 89.28 
L 664.023273 492.48 
L 664.266764 492.48 
L 664.388509 89.28 
L 664.510255 89.28 
L 664.632 492.48 
L 664.753745 492.48 
L 664.875491 89.28 
L 664.997236 89.28 
L 665.118982 492.48 
L 665.484218 492.48 
L 665.605964 89.28 
L 665.849455 89.28 
L 665.9712 492.48 
L 666.336436 492.48 
L 666.458182 89.28 
L 666.579927 89.28 
L 666.701673 492.48 
L 666.823418 492.48 
L 666.945164 89.28 
L 667.066909 89.28 
L 667.188655 492.48 
L 667.432145 492.48 
L 667.553891 89.28 
L 667.675636 89.28 
L 667.797382 492.48 
L 667.919127 492.48 
L 668.040873 89.28 
L 668.162618 492.48 
L 668.284364 492.48 
L 668.406109 89.28 
L 668.527855 89.28 
L 668.6496 492.48 
L 668.771345 492.48 
L 668.893091 89.28 
L 669.014836 492.48 
L 669.136582 492.48 
L 669.258327 89.28 
L 669.380073 89.28 
L 669.501818 492.48 
L 669.867055 492.48 
L 669.9888 89.28 
L 670.232291 89.28 
L 670.354036 492.48 
L 670.597527 492.48 
L 670.719273 89.28 
L 670.841018 89.28 
L 670.962764 492.48 
L 671.206255 492.48 
L 671.328 89.28 
L 671.449745 89.28 
L 671.571491 492.48 
L 671.693236 492.48 
L 671.814982 89.28 
L 671.936727 89.28 
L 672.058473 492.48 
L 672.423709 492.48 
L 672.545455 89.28 
L 672.6672 89.28 
L 672.788945 492.48 
L 672.910691 492.48 
L 673.032436 89.28 
L 673.154182 89.28 
L 673.275927 492.48 
L 673.519418 492.48 
L 673.641164 89.28 
L 673.762909 89.28 
L 673.884655 492.48 
L 674.0064 492.48 
L 674.128145 89.28 
L 674.249891 492.48 
L 674.371636 492.48 
L 674.493382 89.28 
L 674.615127 89.28 
L 674.736873 492.48 
L 674.858618 492.48 
L 674.980364 89.28 
L 675.102109 492.48 
L 675.223855 492.48 
L 675.3456 89.28 
L 675.467345 89.28 
L 675.589091 492.48 
L 675.954327 492.48 
L 676.076073 89.28 
L 676.319564 89.28 
L 676.441309 492.48 
L 676.6848 492.48 
L 676.806545 89.28 
L 676.928291 89.28 
L 677.050036 492.48 
L 677.293527 492.48 
L 677.415273 89.28 
L 677.537018 89.28 
L 677.658764 492.48 
L 677.780509 492.48 
L 677.902255 89.28 
L 678.024 89.28 
L 678.145745 492.48 
L 678.632727 492.48 
L 678.754473 89.28 
L 678.997964 89.28 
L 679.119709 492.48 
L 679.241455 492.48 
L 679.3632 89.28 
L 679.484945 89.28 
L 679.606691 492.48 
L 679.850182 492.48 
L 679.971927 89.28 
L 680.093673 89.28 
L 680.215418 492.48 
L 680.458909 492.48 
L 680.580655 89.28 
L 680.7024 89.28 
L 680.824145 492.48 
L 681.067636 492.48 
L 681.189382 89.28 
L 681.311127 89.28 
L 681.432873 492.48 
L 681.554618 492.48 
L 681.676364 89.28 
L 681.798109 89.28 
L 681.919855 492.48 
L 682.406836 492.48 
L 682.528582 89.28 
L 682.772073 89.28 
L 682.893818 492.48 
L 683.015564 492.48 
L 683.137309 89.28 
L 683.259055 89.28 
L 683.3808 492.48 
L 683.624291 492.48 
L 683.746036 89.28 
L 683.867782 89.28 
L 683.989527 492.48 
L 684.233018 492.48 
L 684.354764 89.28 
L 684.476509 89.28 
L 684.598255 492.48 
L 684.72 492.48 
L 684.841745 89.28 
L 684.963491 492.48 
L 685.085236 492.48 
L 685.206982 89.28 
L 685.328727 89.28 
L 685.450473 492.48 
L 685.693964 492.48 
L 685.815709 89.28 
L 685.937455 89.28 
L 686.0592 492.48 
L 686.180945 492.48 
L 686.302691 89.28 
L 686.424436 492.48 
L 686.546182 492.48 
L 686.667927 89.28 
L 686.789673 89.28 
L 686.911418 492.48 
L 687.154909 492.48 
L 687.276655 89.28 
L 687.3984 89.28 
L 687.520145 492.48 
L 687.641891 492.48 
L 687.763636 89.28 
L 687.885382 89.28 
L 688.007127 492.48 
L 688.494109 492.48 
L 688.615855 89.28 
L 688.859345 89.28 
L 688.981091 492.48 
L 689.102836 492.48 
L 689.224582 89.28 
L 689.346327 89.28 
L 689.468073 492.48 
L 689.711564 492.48 
L 689.833309 89.28 
L 689.955055 89.28 
L 690.0768 492.48 
L 690.320291 492.48 
L 690.442036 89.28 
L 690.563782 89.28 
L 690.685527 492.48 
L 690.807273 492.48 
L 690.929018 89.28 
L 691.050764 492.48 
L 691.172509 492.48 
L 691.294255 89.28 
L 691.416 89.28 
L 691.537745 492.48 
L 691.781236 492.48 
L 691.902982 89.28 
L 692.024727 89.28 
L 692.146473 492.48 
L 692.389964 492.48 
L 692.511709 89.28 
L 692.633455 89.28 
L 692.7552 492.48 
L 692.876945 492.48 
L 692.998691 89.28 
L 693.120436 89.28 
L 693.242182 492.48 
L 693.607418 492.48 
L 693.729164 89.28 
L 693.972655 89.28 
L 694.0944 492.48 
L 694.459636 492.48 
L 694.581382 89.28 
L 694.703127 89.28 
L 694.824873 492.48 
L 694.946618 492.48 
L 695.068364 89.28 
L 695.190109 89.28 
L 695.311855 492.48 
L 695.555345 492.48 
L 695.677091 89.28 
L 695.798836 89.28 
L 695.920582 492.48 
L 696.042327 492.48 
L 696.164073 89.28 
L 696.285818 89.28 
L 696.407564 492.48 
L 696.7728 492.48 
L 696.894545 89.28 
L 697.016291 89.28 
L 697.138036 492.48 
L 697.259782 492.48 
L 697.381527 89.28 
L 697.503273 89.28 
L 697.625018 492.48 
L 697.868509 492.48 
L 697.990255 89.28 
L 698.112 89.28 
L 698.233745 492.48 
L 698.355491 492.48 
L 698.477236 89.28 
L 698.598982 492.48 
L 698.720727 492.48 
L 698.842473 89.28 
L 698.964218 89.28 
L 699.085964 492.48 
L 699.207709 492.48 
L 699.329455 89.28 
L 699.4512 492.48 
L 699.572945 492.48 
L 699.694691 89.28 
L 699.816436 89.28 
L 699.938182 492.48 
L 700.181673 492.48 
L 700.303418 89.28 
L 700.425164 89.28 
L 700.546909 492.48 
L 700.7904 492.48 
L 700.912145 89.28 
L 701.033891 89.28 
L 701.155636 492.48 
L 701.277382 492.48 
L 701.399127 89.28 
L 701.520873 89.28 
L 701.642618 492.48 
L 702.007855 492.48 
L 702.1296 89.28 
L 702.373091 89.28 
L 702.494836 492.48 
L 702.860073 492.48 
L 702.981818 89.28 
L 703.103564 89.28 
L 703.225309 492.48 
L 703.347055 492.48 
L 703.4688 89.28 
L 703.590545 89.28 
L 703.712291 492.48 
L 703.955782 492.48 
L 704.077527 89.28 
L 704.199273 89.28 
L 704.321018 492.48 
L 704.442764 492.48 
L 704.564509 89.28 
L 704.686255 492.48 
L 704.808 492.48 
L 704.929745 89.28 
L 705.051491 89.28 
L 705.173236 492.48 
L 705.294982 492.48 
L 705.416727 89.28 
L 705.538473 492.48 
L 705.660218 492.48 
L 705.781964 89.28 
L 705.903709 89.28 
L 706.025455 492.48 
L 706.390691 492.48 
L 706.512436 89.28 
L 706.755927 89.28 
L 706.877673 492.48 
L 707.121164 492.48 
L 707.242909 89.28 
L 707.364655 89.28 
L 707.4864 492.48 
L 707.729891 492.48 
L 707.851636 89.28 
L 707.973382 89.28 
L 708.095127 492.48 
L 708.216873 492.48 
L 708.338618 89.28 
L 708.460364 89.28 
L 708.582109 492.48 
L 709.069091 492.48 
L 709.190836 89.28 
L 709.434327 89.28 
L 709.556073 492.48 
L 709.677818 492.48 
L 709.799564 89.28 
L 709.921309 89.28 
L 710.043055 492.48 
L 710.286545 492.48 
L 710.408291 89.28 
L 710.530036 89.28 
L 710.651782 492.48 
L 710.895273 492.48 
L 711.017018 89.28 
L 711.138764 89.28 
L 711.260509 492.48 
L 711.504 492.48 
L 711.625745 89.28 
L 711.747491 89.28 
L 711.869236 492.48 
L 711.990982 492.48 
L 712.112727 89.28 
L 712.234473 89.28 
L 712.356218 492.48 
L 712.8432 492.48 
L 712.964945 89.28 
L 713.208436 89.28 
L 713.330182 492.48 
L 713.451927 492.48 
L 713.573673 89.28 
L 713.695418 89.28 
L 713.817164 492.48 
L 714.060655 492.48 
L 714.1824 89.28 
L 714.304145 89.28 
L 714.425891 492.48 
L 714.669382 492.48 
L 714.791127 89.28 
L 714.912873 89.28 
L 715.034618 492.48 
L 715.156364 492.48 
L 715.278109 89.28 
L 715.399855 492.48 
L 715.5216 492.48 
L 715.643345 89.28 
L 715.765091 89.28 
L 715.886836 492.48 
L 716.252073 492.48 
L 716.373818 89.28 
L 716.617309 89.28 
L 716.739055 492.48 
L 716.982545 492.48 
L 717.104291 89.28 
L 717.226036 89.28 
L 717.347782 492.48 
L 717.469527 492.48 
L 717.591273 89.28 
L 717.713018 492.48 
L 717.834764 492.48 
L 717.956509 89.28 
L 718.078255 89.28 
L 718.2 492.48 
L 718.443491 492.48 
L 718.565236 89.28 
L 718.686982 89.28 
L 718.808727 492.48 
L 719.052218 492.48 
L 719.173964 89.28 
L 719.295709 89.28 
L 719.417455 492.48 
L 719.5392 492.48 
L 719.660945 89.28 
L 719.782691 89.28 
L 719.904436 492.48 
L 720.269673 492.48 
L 720.391418 89.28 
L 720.634909 89.28 
L 720.756655 492.48 
L 721.121891 492.48 
L 721.243636 89.28 
L 721.365382 89.28 
L 721.487127 492.48 
L 721.608873 492.48 
L 721.730618 89.28 
L 721.852364 89.28 
L 721.974109 492.48 
L 722.2176 492.48 
L 722.339345 89.28 
L 722.461091 89.28 
L 722.582836 492.48 
L 722.704582 492.48 
L 722.826327 89.28 
L 722.948073 492.48 
L 723.069818 492.48 
L 723.191564 89.28 
L 723.313309 89.28 
L 723.435055 492.48 
L 723.5568 492.48 
L 723.678545 89.28 
L 723.800291 492.48 
L 723.922036 492.48 
L 724.043782 89.28 
L 724.165527 89.28 
L 724.287273 492.48 
L 724.652509 492.48 
L 724.774255 89.28 
L 725.017745 89.28 
L 725.139491 492.48 
L 725.382982 492.48 
L 725.504727 89.28 
L 725.626473 89.28 
L 725.748218 492.48 
L 725.991709 492.48 
L 726.113455 89.28 
L 726.2352 89.28 
L 726.356945 492.48 
L 726.478691 492.48 
L 726.600436 89.28 
L 726.722182 89.28 
L 726.843927 492.48 
L 727.330909 492.48 
L 727.452655 89.28 
L 727.696145 89.28 
L 727.817891 492.48 
L 727.939636 492.48 
L 728.061382 89.28 
L 728.183127 89.28 
L 728.304873 492.48 
L 728.548364 492.48 
L 728.670109 89.28 
L 728.791855 89.28 
L 728.9136 492.48 
L 729.157091 492.48 
L 729.278836 89.28 
L 729.400582 89.28 
L 729.522327 492.48 
L 729.765818 492.48 
L 729.887564 89.28 
L 730.009309 89.28 
L 730.131055 492.48 
L 730.2528 492.48 
L 730.374545 89.28 
L 730.496291 89.28 
L 730.618036 492.48 
L 731.105018 492.48 
L 731.226764 89.28 
L 731.470255 89.28 
L 731.592 492.48 
L 731.713745 492.48 
L 731.835491 89.28 
L 731.957236 89.28 
L 732.078982 492.48 
L 732.322473 492.48 
L 732.444218 89.28 
L 732.565964 89.28 
L 732.687709 492.48 
L 732.9312 492.48 
L 733.052945 89.28 
L 733.174691 89.28 
L 733.296436 492.48 
L 733.539927 492.48 
L 733.661673 89.28 
L 733.783418 89.28 
L 733.905164 492.48 
L 734.026909 492.48 
L 734.148655 89.28 
L 734.2704 89.28 
L 734.392145 492.48 
L 734.757382 492.48 
L 734.879127 89.28 
L 735.000873 89.28 
L 735.122618 492.48 
L 735.244364 492.48 
L 735.366109 89.28 
L 735.487855 89.28 
L 735.6096 492.48 
L 735.731345 492.48 
L 735.853091 89.28 
L 735.974836 492.48 
L 736.096582 492.48 
L 736.218327 89.28 
L 736.340073 89.28 
L 736.461818 492.48 
L 736.705309 492.48 
L 736.827055 89.28 
L 736.9488 89.28 
L 737.070545 492.48 
L 737.314036 492.48 
L 737.435782 89.28 
L 737.557527 89.28 
L 737.679273 492.48 
L 737.801018 492.48 
L 737.922764 89.28 
L 738.044509 89.28 
L 738.166255 492.48 
L 738.531491 492.48 
L 738.653236 89.28 
L 738.896727 89.28 
L 739.018473 492.48 
L 739.383709 492.48 
L 739.505455 89.28 
L 739.6272 89.28 
L 739.748945 492.48 
L 739.870691 492.48 
L 739.992436 89.28 
L 740.114182 89.28 
L 740.235927 492.48 
L 740.479418 492.48 
L 740.601164 89.28 
L 740.722909 89.28 
L 740.844655 492.48 
L 740.9664 492.48 
L 741.088145 89.28 
L 741.209891 492.48 
L 741.331636 492.48 
L 741.453382 89.28 
L 741.575127 89.28 
L 741.696873 492.48 
L 741.940364 492.48 
L 742.062109 89.28 
L 742.183855 89.28 
L 742.3056 492.48 
L 742.427345 492.48 
L 742.549091 89.28 
L 742.670836 89.28 
L 742.792582 492.48 
L 743.279564 492.48 
L 743.401309 89.28 
L 743.6448 89.28 
L 743.766545 492.48 
L 743.888291 492.48 
L 744.010036 89.28 
L 744.131782 89.28 
L 744.253527 492.48 
L 744.497018 492.48 
L 744.618764 89.28 
L 744.740509 89.28 
L 744.862255 492.48 
L 745.105745 492.48 
L 745.227491 89.28 
L 745.349236 89.28 
L 745.470982 492.48 
L 745.592727 492.48 
L 745.714473 89.28 
L 745.836218 492.48 
L 745.957964 492.48 
L 746.079709 89.28 
L 746.201455 89.28 
L 746.3232 492.48 
L 746.566691 492.48 
L 746.688436 89.28 
L 746.810182 89.28 
L 746.931927 492.48 
L 747.175418 492.48 
L 747.297164 89.28 
L 747.418909 89.28 
L 747.540655 492.48 
L 747.6624 492.48 
L 747.784145 89.28 
L 747.905891 89.28 
L 748.027636 492.48 
L 748.392873 492.48 
L 748.514618 89.28 
L 748.758109 89.28 
L 748.879855 492.48 
L 749.245091 492.48 
L 749.366836 89.28 
L 749.488582 89.28 
L 749.610327 492.48 
L 749.732073 492.48 
L 749.853818 89.28 
L 749.975564 89.28 
L 750.097309 492.48 
L 750.3408 492.48 
L 750.462545 89.28 
L 750.584291 89.28 
L 750.706036 492.48 
L 750.827782 492.48 
L 750.949527 89.28 
L 751.071273 89.28 
L 751.193018 492.48 
L 751.558255 492.48 
L 751.68 89.28 
L 751.801745 89.28 
L 751.923491 492.48 
L 752.045236 492.48 
L 752.166982 89.28 
L 752.288727 89.28 
L 752.410473 492.48 
L 752.653964 492.48 
L 752.775709 89.28 
L 752.897455 89.28 
L 753.0192 492.48 
L 753.140945 492.48 
L 753.262691 89.28 
L 753.384436 492.48 
L 753.506182 492.48 
L 753.627927 89.28 
L 753.749673 89.28 
L 753.871418 492.48 
L 753.993164 492.48 
L 754.114909 89.28 
L 754.236655 492.48 
L 754.3584 492.48 
L 754.480145 89.28 
L 754.601891 89.28 
L 754.723636 492.48 
L 755.088873 492.48 
L 755.210618 89.28 
L 755.454109 89.28 
L 755.575855 492.48 
L 755.819345 492.48 
L 755.941091 89.28 
L 756.062836 89.28 
L 756.184582 492.48 
L 756.428073 492.48 
L 756.549818 89.28 
L 756.671564 89.28 
L 756.793309 492.48 
L 756.915055 492.48 
L 757.0368 89.28 
L 757.158545 89.28 
L 757.280291 492.48 
L 757.767273 492.48 
L 757.889018 89.28 
L 758.132509 89.28 
L 758.254255 492.48 
L 758.376 492.48 
L 758.497745 89.28 
L 758.619491 89.28 
L 758.741236 492.48 
L 758.984727 492.48 
L 759.106473 89.28 
L 759.228218 89.28 
L 759.349964 492.48 
L 759.593455 492.48 
L 759.7152 89.28 
L 759.836945 89.28 
L 759.958691 492.48 
L 760.323927 492.48 
L 760.445673 89.28 
L 760.689164 89.28 
L 760.810909 492.48 
L 761.0544 492.48 
L 761.176145 89.28 
L 761.297891 89.28 
L 761.419636 492.48 
L 761.541382 492.48 
L 761.663127 89.28 
L 761.784873 492.48 
L 761.906618 492.48 
L 762.028364 89.28 
L 762.150109 89.28 
L 762.271855 492.48 
L 762.515345 492.48 
L 762.637091 89.28 
L 762.758836 89.28 
L 762.880582 492.48 
L 763.002327 492.48 
L 763.124073 89.28 
L 763.245818 89.28 
L 763.367564 492.48 
L 763.7328 492.48 
L 763.854545 89.28 
L 771.524509 89.28 
L 771.646255 492.48 
L 771.768 89.28 
L 771.889745 492.48 
L 772.011491 89.28 
L 772.133236 492.48 
L 772.254982 89.28 
L 772.376727 492.48 
L 772.498473 89.28 
L 772.620218 492.48 
L 772.741964 89.28 
L 772.863709 492.48 
L 772.985455 492.48 
L 773.1072 89.28 
L 773.228945 492.48 
L 773.350691 89.28 
L 773.472436 492.48 
L 773.594182 89.28 
L 773.715927 492.48 
L 773.837673 89.28 
L 773.959418 492.48 
L 774.081164 89.28 
L 774.202909 492.48 
L 774.324655 89.28 
L 774.4464 492.48 
L 774.568145 89.28 
L 774.689891 492.48 
L 774.811636 89.28 
L 774.933382 492.48 
L 775.055127 89.28 
L 775.176873 492.48 
L 775.298618 89.28 
L 775.420364 492.48 
L 775.542109 89.28 
L 775.663855 492.48 
L 775.7856 89.28 
L 775.907345 492.48 
L 776.029091 89.28 
L 776.150836 492.48 
L 776.272582 89.28 
L 776.394327 492.48 
L 776.516073 89.28 
L 776.637818 492.48 
L 776.759564 492.48 
L 776.881309 89.28 
L 777.003055 492.48 
L 777.1248 89.28 
L 777.246545 492.48 
L 777.368291 89.28 
L 777.490036 492.48 
L 777.611782 89.28 
L 777.733527 492.48 
L 777.855273 89.28 
L 777.977018 492.48 
L 778.098764 89.28 
L 778.220509 89.28 
L 778.342255 492.48 
L 778.464 89.28 
L 778.585745 492.48 
L 778.707491 89.28 
L 778.829236 492.48 
L 778.950982 89.28 
L 779.072727 492.48 
L 779.194473 89.28 
L 779.316218 492.48 
L 779.437964 89.28 
L 779.559709 492.48 
L 779.681455 89.28 
L 779.8032 492.48 
L 779.924945 89.28 
L 780.046691 492.48 
L 780.168436 89.28 
L 780.290182 492.48 
L 780.411927 89.28 
L 780.533673 492.48 
L 780.655418 89.28 
L 780.777164 492.48 
L 780.898909 89.28 
L 781.020655 492.48 
L 781.1424 89.28 
L 781.264145 492.48 
L 781.385891 89.28 
L 781.507636 492.48 
L 781.629382 89.28 
L 781.751127 492.48 
L 781.872873 89.28 
L 781.994618 492.48 
L 782.116364 89.28 
L 782.238109 89.28 
L 782.359855 492.48 
L 782.4816 89.28 
L 782.603345 492.48 
L 782.725091 89.28 
L 782.846836 492.48 
L 782.968582 89.28 
L 783.090327 492.48 
L 783.212073 89.28 
L 783.333818 492.48 
L 783.455564 89.28 
L 783.577309 492.48 
L 783.699055 89.28 
L 783.8208 492.48 
L 783.942545 89.28 
L 784.064291 89.28 
L 784.186036 492.48 
L 784.307782 89.28 
L 784.429527 492.48 
L 784.551273 89.28 
L 784.673018 492.48 
L 784.794764 89.28 
L 784.916509 492.48 
L 785.038255 89.28 
L 785.16 492.48 
L 785.281745 89.28 
L 785.403491 492.48 
L 785.525236 89.28 
L 785.646982 89.28 
L 785.768727 492.48 
L 785.890473 89.28 
L 786.012218 492.48 
L 786.133964 89.28 
L 786.255709 492.48 
L 786.377455 89.28 
L 786.4992 492.48 
L 786.620945 89.28 
L 786.742691 492.48 
L 786.864436 89.28 
L 786.986182 89.28 
L 787.107927 492.48 
L 787.229673 89.28 
L 787.351418 492.48 
L 787.473164 89.28 
L 787.594909 492.48 
L 787.716655 89.28 
L 787.8384 492.48 
L 787.960145 89.28 
L 788.081891 89.28 
L 788.203636 492.48 
L 788.325382 89.28 
L 788.447127 492.48 
L 788.568873 89.28 
L 788.690618 492.48 
L 788.812364 89.28 
L 788.934109 492.48 
L 789.055855 89.28 
L 789.1776 89.28 
L 789.299345 492.48 
L 789.421091 89.28 
L 789.542836 492.48 
L 789.664582 89.28 
L 789.786327 492.48 
L 789.908073 89.28 
L 790.029818 89.28 
L 790.151564 492.48 
L 790.273309 89.28 
L 790.395055 492.48 
L 790.5168 89.28 
L 790.638545 492.48 
L 790.760291 89.28 
L 790.882036 89.28 
L 791.003782 492.48 
L 791.125527 89.28 
L 791.247273 492.48 
L 791.369018 89.28 
L 791.490764 492.48 
L 791.612509 89.28 
L 791.734255 89.28 
L 791.856 492.48 
L 791.977745 89.28 
L 792.099491 492.48 
L 792.221236 89.28 
L 792.342982 492.48 
L 792.464727 89.28 
L 792.586473 89.28 
L 792.708218 492.48 
L 792.829964 89.28 
L 792.951709 492.48 
L 793.073455 89.28 
L 793.1952 492.48 
L 793.316945 89.28 
L 793.438691 89.28 
L 793.560436 492.48 
L 793.682182 89.28 
L 793.803927 492.48 
L 793.925673 89.28 
L 794.047418 89.28 
L 794.169164 492.48 
L 794.290909 89.28 
L 794.412655 492.48 
L 794.5344 89.28 
L 794.656145 492.48 
L 794.777891 89.28 
L 794.899636 89.28 
L 795.021382 492.48 
L 795.143127 89.28 
L 795.264873 492.48 
L 795.386618 89.28 
L 795.508364 89.28 
L 795.630109 492.48 
L 795.751855 89.28 
L 795.8736 492.48 
L 795.995345 89.28 
L 796.117091 492.48 
L 796.238836 89.28 
L 796.360582 89.28 
L 796.482327 492.48 
L 796.604073 89.28 
L 796.725818 492.48 
L 796.847564 89.28 
L 796.969309 89.28 
L 797.091055 492.48 
L 797.2128 89.28 
L 797.334545 492.48 
L 797.456291 89.28 
L 797.578036 89.28 
L 797.699782 492.48 
L 797.821527 89.28 
L 797.943273 492.48 
L 798.065018 89.28 
L 798.186764 89.28 
L 798.308509 492.48 
L 798.430255 89.28 
L 798.552 492.48 
L 798.673745 89.28 
L 798.795491 89.28 
L 798.917236 492.48 
L 799.038982 89.28 
L 799.160727 492.48 
L 799.282473 89.28 
L 799.404218 89.28 
L 799.525964 492.48 
L 799.647709 89.28 
L 799.769455 492.48 
L 799.8912 89.28 
L 800.012945 89.28 
L 800.134691 492.48 
L 800.256436 89.28 
L 800.378182 492.48 
L 800.499927 89.28 
L 800.621673 89.28 
L 800.743418 492.48 
L 800.865164 89.28 
L 800.986909 89.28 
L 801.108655 492.48 
L 801.2304 89.28 
L 801.352145 492.48 
L 801.473891 89.28 
L 801.595636 89.28 
L 801.717382 492.48 
L 801.839127 89.28 
L 801.960873 492.48 
L 802.082618 89.28 
L 802.204364 89.28 
L 802.326109 492.48 
L 802.447855 89.28 
L 802.5696 492.48 
L 802.691345 89.28 
L 802.813091 89.28 
L 802.934836 492.48 
L 803.056582 89.28 
L 803.178327 89.28 
L 803.300073 492.48 
L 803.421818 89.28 
L 803.543564 492.48 
L 803.665309 89.28 
L 803.787055 89.28 
L 803.9088 492.48 
L 804.030545 89.28 
L 804.152291 89.28 
L 804.274036 492.48 
L 804.395782 89.28 
L 804.517527 492.48 
L 804.639273 89.28 
L 804.761018 89.28 
L 804.882764 492.48 
L 805.004509 89.28 
L 805.126255 89.28 
L 805.248 492.48 
L 805.369745 89.28 
L 805.491491 492.48 
L 805.613236 89.28 
L 805.734982 89.28 
L 805.856727 492.48 
L 805.978473 89.28 
L 806.100218 89.28 
L 806.221964 492.48 
L 806.343709 89.28 
L 806.465455 492.48 
L 806.5872 89.28 
L 806.708945 89.28 
L 806.830691 492.48 
L 806.952436 89.28 
L 807.074182 89.28 
L 807.195927 492.48 
L 807.317673 89.28 
L 807.439418 492.48 
L 807.561164 89.28 
L 807.682909 89.28 
L 807.804655 492.48 
L 807.9264 89.28 
L 808.048145 89.28 
L 808.169891 492.48 
L 808.291636 89.28 
L 808.413382 89.28 
L 808.535127 492.48 
L 808.656873 89.28 
L 808.778618 492.48 
L 808.900364 89.28 
L 809.022109 89.28 
L 809.143855 492.48 
L 814.744145 492.48 
L 814.865891 89.28 
L 823.9968 89.28 
L 824.118545 492.48 
L 829.3536 492.48 
L 829.475345 89.28 
L 838.241018 89.28 
L 838.362764 492.48 
L 843.354327 492.48 
L 843.476073 89.28 
L 851.754764 89.28 
L 851.876509 492.48 
L 856.624582 492.48 
L 856.746327 89.28 
L 864.659782 89.28 
L 864.781527 492.48 
L 869.286109 492.48 
L 869.407855 89.28 
L 877.077818 89.28 
L 877.199564 492.48 
L 881.704145 492.48 
L 881.825891 89.28 
L 889.495855 89.28 
L 889.6176 492.48 
L 894.000436 492.48 
L 894.122182 89.28 
L 901.426909 89.28 
L 901.548655 492.48 
L 905.688 492.48 
L 905.809745 89.28 
L 912.749236 89.28 
L 912.870982 492.48 
L 916.888582 492.48 
L 917.010327 89.28 
L 923.949818 89.28 
L 924.071564 492.48 
L 928.210909 492.48 
L 928.332655 89.28 
L 935.515636 89.28 
L 935.637382 492.48 
L 939.776727 492.48 
L 939.898473 89.28 
L 946.959709 89.28 
L 947.081455 492.48 
L 951.2208 492.48 
L 951.342545 89.28 
L 958.403782 89.28 
L 958.525527 492.48 
L 962.543127 492.48 
L 962.664873 89.28 
L 969.360873 89.28 
L 969.482618 492.48 
L 973.256727 492.48 
L 973.378473 89.28 
L 979.709236 89.28 
L 979.830982 492.48 
L 983.483345 492.48 
L 983.605091 89.28 
L 989.814109 89.28 
L 989.935855 492.48 
L 993.466473 492.48 
L 993.588218 89.28 
L 999.553745 89.28 
L 999.675491 492.48 
L 1003.084364 492.48 
L 1003.206109 89.28 
L 1009.049891 89.28 
L 1009.171636 492.48 
L 1012.702255 492.48 
L 1012.824 89.28 
L 1019.154764 89.28 
L 1019.276509 492.48 
L 1023.050618 492.48 
L 1023.172364 89.28 
L 1029.746618 89.28 
L 1029.868364 492.48 
L 1033.764218 492.48 
L 1033.885964 89.28 
L 1040.703709 89.28 
L 1040.825455 492.48 
L 1044.843055 492.48 
L 1044.9648 89.28 
L 1051.904291 89.28 
L 1052.026036 492.48 
L 1056.043636 492.48 
L 1056.165382 89.28 
L 1062.983127 89.28 
L 1063.104873 492.48 
L 1067.122473 492.48 
L 1067.244218 89.28 
L 1074.305455 89.28 
L 1074.4272 492.48 
L 1078.688291 492.48 
L 1078.810036 89.28 
L 1086.236509 89.28 
L 1086.358255 492.48 
L 1090.619345 492.48 
L 1090.741091 89.28 
L 1097.924073 89.28 
L 1098.045818 492.48 
L 1102.185164 492.48 
L 1102.306909 89.28 
L 1109.2464 89.28 
L 1109.368145 492.48 
L 1113.264 492.48 
L 1113.385745 89.28 
L 1119.96 89.28 
L 1120.081745 492.48 
L 1123.9776 492.48 
L 1124.099345 89.28 
L 1130.917091 89.28 
L 1131.038836 492.48 
L 1135.056436 492.48 
L 1135.178182 89.28 
L 1142.117673 89.28 
L 1142.239418 492.48 
L 1146.378764 492.48 
L 1146.500509 89.28 
L 1153.805236 89.28 
L 1153.926982 492.48 
L 1158.309818 492.48 
L 1158.431564 89.28 
L 1166.101527 89.28 
L 1166.223273 492.48 
L 1170.727855 492.48 
L 1170.8496 89.28 
L 1178.519564 89.28 
L 1178.641309 492.48 
L 1183.024145 492.48 
L 1183.145891 89.28 
L 1190.450618 89.28 
L 1190.572364 492.48 
L 1194.711709 492.48 
L 1194.833455 89.28 
L 1201.772945 89.28 
L 1201.894691 492.48 
L 1205.912291 492.48 
L 1206.034036 89.28 
L 1212.973527 89.28 
L 1213.095273 492.48 
L 1217.234618 492.48 
L 1217.356364 89.28 
L 1224.539345 89.28 
L 1224.661091 492.48 
L 1228.800436 492.48 
L 1228.922182 89.28 
L 1235.983418 89.28 
L 1236.105164 492.48 
L 1240.244509 492.48 
L 1240.366255 89.28 
L 1247.427491 89.28 
L 1247.549236 492.48 
L 1275.550691 492.48 
L 1275.672436 89.28 
L 1290.890618 89.28 
L 1291.012364 492.48 
L 1309.030691 492.48 
L 1309.152436 89.28 
L 1320.961745 89.28 
L 1321.083491 492.48 
L 1335.692945 492.48 
L 1335.814691 89.28 
L 1345.676073 89.28 
L 1345.797818 492.48 
L 1358.459345 492.48 
L 1358.581091 89.28 
L 1367.225018 89.28 
L 1367.346764 492.48 
L 1378.4256 492.48 
L 1378.547345 89.28 
L 1386.095564 89.28 
L 1386.217309 492.48 
L 1396.078691 492.48 
L 1396.200436 89.28 
L 1403.018182 89.28 
L 1403.139927 492.48 
L 1412.149091 492.48 
L 1412.270836 89.28 
L 1418.6016 89.28 
L 1418.723345 492.48 
L 1427.245527 492.48 
L 1427.367273 89.28 
L 1433.3328 89.28 
L 1433.454545 492.48 
L 1441.489745 492.48 
L 1441.611491 89.28 
L 1447.333527 89.28 
L 1447.455273 492.48 
L 1455.246982 492.48 
L 1455.368727 89.28 
L 1460.969018 89.28 
L 1461.090764 492.48 
L 1468.760727 492.48 
L 1468.882473 89.28 
L 1474.239273 89.28 
L 1474.361018 492.48 
L 1481.544 492.48 
L 1481.665745 89.28 
L 1486.779055 89.28 
L 1486.9008 492.48 
L 1493.962036 492.48 
L 1494.083782 89.28 
L 1494.327273 89.28 
L 1494.327273 89.28 
" style="fill:none;stroke:#1f77b4;stroke-linecap:square;stroke-width:0.25;"/>
   </g>
   <g id="patch_3">
    <path d="M 216 512.64 
L 216 69.12 
" style="fill:none;stroke:#000000;stroke-linecap:square;stroke-linejoin:miter;stroke-width:0.8;"/>
   </g>
   <g id="patch_4">
    <path d="M 1555.2 512.64 
L 1555.2 69.12 
" style="fill:none;stroke:#000000;stroke-linecap:square;stroke-linejoin:miter;stroke-width:0.8;"/>
   </g>
   <g id="patch_5">
    <path d="M 216 512.64 
L 1555.2 512.64 
" style="fill:none;stroke:#000000;stroke-linecap:square;stroke-linejoin:miter;stroke-width:0.8;"/>
   </g>
   <g id="patch_6">
    <path d="M 216 69.12 
L 1555.2 69.12 
" style="fill:none;stroke:#000000;stroke-linecap:square;stroke-linejoin:miter;stroke-width:0.8;"/>
   </g>
   <g id="text_15">
    <!-- Time - - PWM -->
    <g transform="translate(848.049375 63.12)scale(0.12 -0.12)">
     <defs>
      <path d="M 4.890625 31.390625 
L 31.203125 31.390625 
L 31.203125 23.390625 
L 4.890625 23.390625 
z
" id="DejaVuSans-45"/>
      <path d="M 19.671875 64.796875 
L 19.671875 37.40625 
L 32.078125 37.40625 
Q 38.96875 37.40625 42.71875 40.96875 
Q 46.484375 44.53125 46.484375 51.125 
Q 46.484375 57.671875 42.71875 61.234375 
Q 38.96875 64.796875 32.078125 64.796875 
z
M 9.8125 72.90625 
L 32.078125 72.90625 
Q 44.34375 72.90625 50.609375 67.359375 
Q 56.890625 61.8125 56.890625 51.125 
Q 56.890625 40.328125 50.609375 34.8125 
Q 44.34375 29.296875 32.078125 29.296875 
L 19.671875 29.296875 
L 19.671875 0 
L 9.8125 0 
z
" id="DejaVuSans-80"/>
      <path d="M 3.328125 72.90625 
L 13.28125 72.90625 
L 28.609375 11.28125 
L 43.890625 72.90625 
L 54.984375 72.90625 
L 70.3125 11.28125 
L 85.59375 72.90625 
L 95.609375 72.90625 
L 77.296875 0 
L 64.890625 0 
L 49.515625 63.28125 
L 33.984375 0 
L 21.578125 0 
z
" id="DejaVuSans-87"/>
      <path d="M 9.8125 72.90625 
L 24.515625 72.90625 
L 43.109375 23.296875 
L 61.8125 72.90625 
L 76.515625 72.90625 
L 76.515625 0 
L 66.890625 0 
L 66.890625 64.015625 
L 48.09375 14.015625 
L 38.1875 14.015625 
L 19.390625 64.015625 
L 19.390625 0 
L 9.8125 0 
z
" id="DejaVuSans-77"/>
     </defs>
     <use xlink:href="#DejaVuSans-84"/>
     <use x="57.958984" xlink:href="#DejaVuSans-105"/>
     <use x="85.742188" xlink:href="#DejaVuSans-109"/>
     <use x="183.154297" xlink:href="#DejaVuSans-101"/>
     <use x="244.677734" xlink:href="#DejaVuSans-32"/>
     <use x="276.464844" xlink:href="#DejaVuSans-45"/>
     <use x="312.548828" xlink:href="#DejaVuSans-45"/>
     <use x="348.632812" xlink:href="#DejaVuSans-32"/>
     <use x="380.419922" xlink:href="#DejaVuSans-80"/>
     <use x="440.722656" xlink:href="#DejaVuSans-87"/>
     <use x="539.599609" xlink:href="#DejaVuSans-77"/>
    </g>
   </g>
  </g>
 </g>
 <defs>
  <clipPath id="p1748e82874">
   <rect height="443.52" width="1339.2" x="216" y="69.12"/>
  </clipPath>
 </defs>
</svg>
